<?xml version="1.0" encoding="UTF-8"?>
<!DOCTYPE svg PUBLIC "-//W3C//DTD SVG 1.1//EN" "http://www.w3.org/Graphics/SVG/1.1/DTD/svg11.dtd">
<!-- Creator: CorelDRAW 2019 (64-Bit) -->
<svg xmlns="http://www.w3.org/2000/svg" xml:space="preserve" width="182.882mm" height="182.266mm" version="1.1" style="shape-rendering:geometricPrecision; text-rendering:geometricPrecision; image-rendering:optimizeQuality; fill-rule:evenodd; clip-rule:evenodd"
viewBox="0 0 182.6164 182.0014"
 xmlns:xlink="http://www.w3.org/1999/xlink"
 xmlns:xodm="http://www.corel.com/coreldraw/odm/2003">
 <defs>
  <style type="text/css">
   <![CDATA[
    .str1 {stroke:#00B5F1;stroke-width:0.0877;stroke-miterlimit:3.864}
    .str2 {stroke:white;stroke-width:0.0877;stroke-miterlimit:3.864}
    .str0 {stroke:white;stroke-width:2.8554;stroke-miterlimit:3.864}
    .fil0 {fill:none}
    .fil2 {fill:#00B5F1}
    .fil1 {fill:#231F20}
    .fil4 {fill:#BABDBE}
    .fil3 {fill:#EF3D2E}
    .fil5 {fill:#F0B83C}
    .fil6 {fill:white}
   ]]>
  </style>
 </defs>
 <g id="Layer_x0020_1">
  <metadata id="CorelCorpID_0Corel-Layer"/>
  <g id="_692404080">
   <path class="fil0 str0" d="M145.019 121.6665c0,0 0,0.0712 0,0.1302 0,-0.033 0,-0.0712 0,-0.1302z"/>
   <path class="fil0 str0" d="M145.019 121.7993c0,0.0877 0.0034,0.1525 0,0z"/>
   <path class="fil0 str0" d="M145.019 121.7967c0,0.0026 0,0.0026 0,0.0026 0,0 0,0 0,-0.0026z"/>
   <path class="fil1" d="M179.4415 131.4615c-1.7428,-3.1774 -1.4285,-8.1845 -5.8563,-9.1242 -4.6049,-0.1325 -9.5639,1.6551 -13.683,4.1585 -1.607,1.61 0.5829,2.9964 0.6698,4.5601 0.4958,2.2351 1.6125,4.2012 1.8364,6.5271 -1.0263,0.3556 -2.0563,0.8513 -3.1282,1.1166 -0.8972,0.3178 -1.6559,-0.1325 -2.2386,-0.6665 -2.6394,-1.208 -5.2761,0.1774 -7.4682,1.292 -0.936,1.519 -2.7277,0.227 -4.0653,0.7643 -3.8446,0.2207 -8.6282,0.1328 -11.8508,3.0869 -2.1891,2.1442 0.1358,4.6475 -0.0905,7.0601 -6.0311,1.6135 -11.9836,3.4434 -18.329,4.295 -1.7421,0.3142 -3.5786,0.5347 -5.3662,0.8035 -5.5875,0.8483 -11.3135,1.4735 -16.6738,1.6058l-0.1807 -0.1748c0.0479,-0.2264 0.2685,-0.4012 0.1807,-0.6698 3.8414,-4.7876 9.2987,-8.4539 14.6168,-11.0898 0.7646,-0.4021 1.4742,-1.0273 2.3256,-1.2962 0.6707,-0.8966 1.7007,-0.8089 2.4162,-1.6546 4.5602,-2.8176 9.5674,-6.1275 11.89,-11.1769 0.7187,-1.0719 0.8937,-2.3256 1.3472,-3.537 0.3564,-1.0722 0.3564,-2.0117 0.709,-3.0839 1.1209,2.7273 1.2993,6.125 4.2079,7.7377 3.6176,2.727 8.3169,3.4402 12.7413,1.8756 5.7195,-2.2345 8.8546,-8.4052 9.3892,-14.2606 0.2687,-0.7613 1.1592,-0.8969 1.3863,-1.6549 -0.8034,-0.7164 -1.2113,-1.833 -0.8034,-2.8182 0.3109,-1.0264 1.7876,-0.8448 1.9235,-1.9235 -0.2751,-0.2687 -0.6308,-0.3568 -0.9451,-0.5764 -1.0721,-0.7643 -1.6518,-1.9693 -1.3863,-3.2685 0.0938,-1.0264 1.4344,-1.4276 1.6095,-2.4126 -0.8026,-0.2654 -1.7422,-0.4012 -2.2314,-1.1179 0,-0.3591 0.4469,-0.5372 0.7157,-0.6245 2.727,-0.4921 7.2424,-1.4317 9.2117,1.6519 2.9044,3.5818 -0.7163,7.6015 -0.4501,11.4456 0.3131,0.8522 0.048,2.1508 0.9384,2.5942 0,-3.1284 3.1325,-3.9741 4.8299,-6.2119l0.4469 0.6708c1.0721,-1.6103 -0.2271,-4.0263 1.1202,-5.5936 0.402,-0.2693 0.8034,0.2686 1.2047,0l0 -0.4889c-1.117,-1.0275 -1.0721,-2.5043 -1.2983,-3.8904 0.1324,-0.6698 0.9393,-0.2233 1.2112,-0.758 -0.8034,-0.5373 -1.432,-1.4344 -1.8331,-2.3249 -0.2686,-1.6549 -1.879,-2.6855 -3.0902,-3.5305l0.8523 -1.0296c0.3141,-0.8971 0.9419,-1.704 1.2984,-2.5945 -0.9843,-0.2686 -2.1891,-0.5347 -3.0869,-1.2113 1.5646,-2.4129 1.3863,-5.7202 1.4776,-8.1776l-0.4469 0.2653c-0.2273,-1.6518 -0.2696,-3.4817 -1.0307,-4.829 -0.3559,0.0936 -0.0871,0.6698 -0.5372,0.5373 -0.8483,-1.7877 -1.5191,-3.7534 -3.0869,-5.1856 -0.7578,-0.1816 -0.087,0.6708 -0.5307,0.8034 -1.3863,-0.9851 -2.0603,-2.4127 -2.2376,-3.9772 -0.4023,0 -0.4927,0.4011 -0.5807,0.6674 -0.6251,4.6962 1.5646,9.3923 0.2663,13.9527 -0.6285,1.2537 -0.6285,2.7727 -1.6524,3.8927 -1.0332,2.8596 -3.6656,4.7351 -6.124,6.3444 -0.1817,-0.0413 -0.4081,0.0458 -0.4961,-0.0869 -0.3141,-1.3407 0.8972,-2.4195 0.8517,-3.6666 -0.9841,-0.1781 -1.8748,-0.9841 -2.4195,-1.7421 -0.2198,-1.2113 0.1817,-2.3288 1.2993,-3.0868 0.3565,-0.8489 -0.849,-0.4468 -1.2047,-0.8489 -1.0298,-0.8059 -1.7005,-2.1433 -1.7005,-3.6242 -0.088,-1.0719 1.1175,-1.7421 1.1175,-2.6815 -1.1597,0 -2.0569,-1.1176 -2.5908,-2.0562 -0.5839,-1.6523 -0.6286,-3.9359 0.2686,-5.5875 1.072,-4.6541 7.5524,-4.6052 7.6436,-9.658 0.2655,-0.985 1.7911,0.0423 2.4162,-0.9393 0.4015,-0.4469 -0.3141,-0.3142 -0.45,-0.4469 -1.3441,-0.7157 -1.0754,-2.3258 -1.2047,-3.4427 0.6243,-0.2271 0.9774,0.4437 1.5604,0.0872 0.2751,-0.2207 0.897,-0.3142 0.6772,-0.7613 -0.8523,0.0905 -1.0719,-0.845 -1.6134,-1.295 0.3531,-0.2696 0.7164,0.1325 1.1243,0 0.262,-0.0879 0.7512,-0.1748 0.5764,-0.6708 -0.8036,-0.5349 -1.2952,-1.4734 -1.2952,-2.3223l0.6251 0c1.2047,-0.4047 -0.2694,-1.0722 -0.1813,-1.7421 0.087,-0.1816 0.2751,-0.2273 0.4499,-0.1816 0.1751,-0.1326 0.3142,-0.3566 0.2199,-0.4891 -1.7422,-0.4503 -1.0713,-2.5523 -2.7271,-3.1351 1.2537,-0.985 -0.7155,-1.2992 -0.6216,-2.2345 -0.181,-0.4926 -0.6701,-0.5382 -1.0332,-0.6707 -0.045,-0.2687 0.0488,-0.4891 0.2693,-0.6708 0.5372,-0.8515 -0.4891,-0.9387 -1.0271,-1.1202 0,-0.5349 0.1359,-1.7886 -1.03,-1.3864 0.5831,-1.5188 -1.2925,-0.9783 -1.9623,-1.1177 0.0422,-0.6219 0.3565,-1.2047 0.1324,-1.8299 -0.7155,-0.1814 -1.1176,0.3142 -1.7004,0.2687l-0.0871 -1.2048c-0.6286,-0.1807 -0.9427,0.3077 -1.4801,0.2663 -1.5612,1.5604 -1.3382,-1.3448 -2.6366,-1.6551 -0.3109,-0.1781 -0.8456,-0.4924 -1.2079,-0.0912 0.1815,0.8101 0.897,1.5679 0.4959,2.5041 -0.2697,0.3624 -0.7165,0.9843 -1.2116,0.7157 -0.583,-0.7613 -1.2044,-1.519 -1.969,-2.2347 -0.3501,-0.4021 -0.3955,-1.208 -1.1144,-1.2959 -0.447,1.0722 -0.3142,2.3682 -0.447,3.5307 -0.6706,-0.1328 -1.3407,-0.8483 -1.9689,-0.447 -0.4895,1.6128 0.2196,3.1282 1.3861,4.295 -0.849,0.7613 -1.4741,1.606 -2.2385,2.4096 -1.117,2.1921 -3.4361,3.4913 -5.0908,5.4118 -1.8333,1.4351 -1.9693,3.7567 -2.2348,5.7681 0.6668,1.1178 1.8267,0.7613 2.8599,1.2993 0.1326,0.3558 -0.3141,0.4884 -0.4503,0.7157 -0.4891,0.1748 -0.5829,-0.583 -1.0239,-0.447 -0.5831,0.0872 -0.67,0.7157 -0.8516,1.1169 0.2207,0.3988 0.1327,0.9394 0.6707,1.2057 1.03,0.5829 2.1889,0 3.0862,-0.7613 0.7578,0.1807 1.6971,-0.3109 2.5006,0.0938l0 -0.1817c1.6061,-0.4891 2.2835,-2.4584 3.8895,-3.1738 0.6318,0.2263 1.208,-0.4048 1.6102,0.3142 -1.2927,1.8332 -3.7121,2.3705 -5.3182,3.799 -2.9087,1.7007 -5.5875,4.5604 -6.9732,7.5528 -0.5379,0.7643 -0.4053,1.9244 -1.2079,2.5073 -1.568,-2.5073 -2.1475,-5.4541 -4.0264,-7.7376 -1.1175,-0.9359 -2.8173,-0.9851 -4.1588,-0.4436 -2.6848,1.9237 -5.9883,2.2312 -8.5858,4.2494l-0.1748 -0.1817c-0.0491,-0.8033 -0.4013,-1.4732 -0.9429,-2.144 -0.8448,-0.4014 -1.6971,-0.6707 -2.6812,-0.7157 -1.4735,-0.1358 -2.9055,1.0231 -4.295,0.0873 -0.3078,-0.6252 -0.4895,-1.2537 -0.5341,-1.966 -0.2627,-0.6285 0.1808,-2.1052 -0.758,-2.329 -0.7163,-1.1591 -0.5829,-2.6781 -0.6704,-4.1135 -0.0906,-0.3074 -0.4959,0 -0.6287,-0.2653 -0.625,-2.1921 -0.2686,-4.8321 -0.4468,-6.8883 0.2718,-0.9361 -0.6699,-2.1028 0.4468,-2.6792 0.1816,-0.2686 0.3141,-0.8033 -0.087,-0.9394 -0.1326,-0.1325 -0.1326,-0.4468 0.087,-0.5337 1.8365,-0.1816 1.4743,-2.9088 3.4434,-2.6401 0.2687,-0.2264 0.2198,-0.6285 0.3558,-0.8972 -0.0871,-1.0263 0.3176,-2.0081 -0.0871,-3.0803l-2.8597 0.088 -0.2237 -0.1814c-0.3601,-1.4735 -0.1817,-3.2621 0.9391,-4.2885 0.9361,-0.2719 1.7006,-0.8515 2.6392,-0.3624 0.6675,0.4047 1.024,1.1202 1.1178,1.8358 -0.2262,0.4477 -0.6766,0.7164 -1.1178,0.5836 -0.897,-0.3631 -0.7188,-1.6135 -1.5246,-1.6135 -0.224,1.3441 0.2264,2.6857 1.3887,3.4434 0.5771,0.3142 1.5224,0.3142 2.0571,0 0.8516,-0.5379 1.3407,-1.2959 1.5223,-2.3256 -0.6707,-1.6551 1.519,-0.5349 2.0953,-1.2926 1.6127,-0.6311 1.1212,-2.1957 1.2081,-3.5364 0,-0.8456 1.2503,-1.4285 1.2503,-2.1442 -0.5348,-0.2271 -1.1109,-0.3142 -1.6938,-0.2686 -1.3408,0 -1.2986,1.5216 -2.0563,2.2379l-0.0878 -1.5679c-0.3143,-0.5829 -0.8973,-1.2047 -1.48,-1.519 -0.447,0.0456 -0.9395,-0.4047 -1.2927,0 -0.0938,0.5796 0.5347,0.5347 0.7099,0.9361 -0.1751,1.5679 -1.9627,1.2537 -3.0349,1.7004 -1.4319,0.2231 -1.5678,1.9658 -2.9085,2.238 -2.0572,1.2468 -2.1019,3.8869 -1.8332,6.0367 -1.1179,0.2663 -0.1817,1.4255 -0.8516,2.054 -0.8491,-0.2273 -1.0305,-1.2504 -1.2925,-1.966 -0.4961,-1.4351 -0.2721,-3.2651 -0.1817,-4.8323 0.3109,-2.1896 2.7271,-3.4822 3.9807,-5.2309 -0.7645,-1.519 1.2926,-1.8756 1.3862,-3.1741 -0.4018,-0.3142 -0.8516,0.3142 -1.2078,-0.1814 0,-0.1751 0,-0.4014 0.087,-0.5307 2.5074,-0.4477 0.7191,-2.7303 1.791,-4.2045 -0.087,-0.7157 -0.4918,-0.9394 -0.9388,-1.4734 -0.4891,0.1748 -0.9391,-0.2274 -1.0305,-0.7646 -0.5372,-0.8483 -1.5603,-1.1592 -2.5065,-1.0264 -0.4011,-0.1783 -0.8456,-0.5349 -1.2926,-0.2663 -0.9384,1.1601 -2.3706,1.5613 -3.1737,2.9933l-0.3559 -0.3142c-0.5414,0.7155 -1.2081,1.5224 -1.2081,2.552 0.4439,1.1592 -1.1176,1.1179 -1.6136,1.83 -0.8022,0.8482 -0.6215,2.1475 -1.561,2.8173 -1.0744,-1.7454 -2.8664,-2.6359 -3.7114,-4.4724 0.0423,-2.3647 -3.0868,-3.663 -1.7876,-6.3445 5.9881,-3.6698 12.8283,-0.496 19.3578,-0.1817 9.4348,1.3408 21.3703,1.4768 27.5401,-7.0641 0.0454,-0.5796 0.7642,-1.1591 0.4468,-1.6551 -2.9925,1.8333 -6.8853,1.8333 -10.4157,2.1019 -2.4161,-0.087 -5.1855,-0.0446 -7.1547,-0.7155 -4.9168,-0.6252 -9.3892,-2.4128 -13.6842,-4.4701 -3.7958,-1.7453 -8.1776,-2.4161 -12.5605,-1.6997 -0.4468,0.0449 -0.9841,0.3559 -1.2983,0.0872 0.2265,-0.8905 -0.2652,-1.7876 -0.7579,-2.5909 -0.622,-0.3566 -1.2501,-1.1202 -1.9203,-1.1202 -1.3473,-0.2207 -2.6401,0.3142 -3.5304,1.2983 -0.8098,0.9841 -0.8972,2.6815 -0.3145,3.7534 0.4895,0.8492 1.2921,1.432 1.9627,1.9277 0.2264,5.4991 0,10.1953 0.1817,15.2 -0.1817,0.8024 -0.8069,1.7874 -0.1817,2.591 0.1328,3.4425 0.1328,7.8703 0,11.5365l-0.2688 0.3592c-0.2203,0.3565 -0.0421,0.7577 0.1816,1.0273l0.0872 28.3946c-0.5763,0.583 -1.2951,0.8906 -1.6482,1.6551 -0.136,0.6666 0,1.4733 0.3531,2.0561 1.7912,2.4095 4.382,1.6518 6.9764,1.3864l0.1774 0.1749c-0.4468,1.0299 -0.3556,2.5489 0.3142,3.446 0.2663,0.8938 -0.6276,1.5611 -1.2495,2.0537 -3.3108,1.791 -7.2906,2.3282 -10.8666,1.4768 -1.9234,-0.2654 0.0877,-1.8333 -0.2722,-2.9509 -0.3496,-1.5638 -1.2079,-3.3099 -2.9954,-3.6208 -1.5615,-0.4047 -3.3979,0.0879 -4.3822,1.3829 -0.0386,-1.295 0.1361,-2.9019 1.5217,-3.5304 1.299,0.2205 2.5528,0.5836 3.6248,1.4806 0.8026,0.9778 1.3856,1.7388 2.6782,1.7811 0.6283,1.1178 0.4081,2.4584 0.1816,3.7121l0.3142 0.2686c1.5669,0.3142 3.3097,0.1781 4.9159,0.4469 0.9396,-1.4733 2.5522,0.3624 3.4434,-1.3863 0.3142,-0.3142 1.117,0.1326 1.117,-0.5347 -1.5192,-2.4128 -4.2911,-3.533 -6.348,-5.2337 -2.3706,-3.1738 -6.6167,-3.1738 -9.6579,-5.3636 -5.6354,-1.3862 -5.3605,5.4997 -7.8252,8.3593l-0.3566 -0.4891c-1.5673,-5.3662 -6.7982,-9.4795 -11.5335,-11.8054 -0.5826,-0.4012 -1.4345,-0.8033 -1.6127,-1.5646 2.5486,-1.295 3.534,2.8606 6.0794,2.9544 1.882,-0.6708 2.6878,1.4311 4.7383,0.9361 0.408,-0.1328 0.6735,-0.4021 0.8092,-0.8492 0.2208,-0.5373 0.088,-1.295 -0.45,-1.567 -0.5829,-0.4437 -0.8026,0.495 -1.3855,0.272 -0.1781,-0.1817 -0.4891,-0.408 -0.3566,-0.6285 0.9841,-0.4014 2.4618,-0.2207 2.9502,-1.519 0.2271,-3.3979 -2.4576,-5.9043 -4.9161,-7.9582 -2.2345,-1.3407 -2.7269,-3.9798 -4.8322,-5.4988 0.7188,-0.6707 1.2529,-1.3898 1.567,-2.2386 -0.1322,-0.845 0.311,-1.6093 -0.3588,-2.2377 -0.6255,0.1814 -1.1209,0.45 -1.6974,0.7155 -0.3599,-0.5764 -0.088,-1.4735 -0.1781,-2.1889 -0.1361,-0.4893 -0.0489,-1.6069 -0.7645,-1.3408 -0.4437,1.6096 -2.0116,2.1924 -2.7695,3.6658l-0.2651 0c-1.7488,-0.67 -0.5375,-2.5 -0.4959,-3.5297 -1.4735,-0.0879 -2.0984,1.4311 -2.7693,2.4128 -0.7193,-0.4437 -1.477,-0.7131 -2.3285,-0.8459 -0.6707,0.3077 0.0942,0.8459 -0.2627,1.2927 -0.5405,-0.0423 -0.9844,-0.3566 -1.5216,-0.3566 -0.7196,0.5382 0.2233,1.3865 -0.185,2.1442 -0.4433,-0.2204 -1.1598,-0.2204 -1.648,-0.1325 0,0.761 -0.3141,1.3862 -1.1178,1.2501 -0.3141,0.4048 0.1329,0.8518 0,1.2081 -0.4011,0.1328 -0.946,0 -1.2113,0.4469 0.0456,0.496 0.2264,0.8939 0.3599,1.2983 -1.4318,-0.0902 -0.622,1.6974 -1.9692,1.8789 -0.3079,0.4014 0.1807,0.6675 0.314,1.0299 -1.6938,0.5764 -0.9848,2.6789 -2.7277,3.1292 -0.2264,0.6219 0.4445,0.4884 0.6708,0.7577 -0.0456,0.583 -0.7156,0.8026 -0.6708,1.3856 0.088,0.7612 0.9394,0.0879 1.2083,0.5838 -0.4504,0.6699 -0.5375,1.6516 -1.3858,2.0072 -0.0945,1.2537 1.2113,0.409 1.6997,0.7646 -0.4011,0.6708 -0.9418,1.2504 -1.6997,1.3862 0.4469,0.9361 1.5637,0.6219 2.4161,0.6708 0.2198,0.758 -0.4087,1.1169 -0.1817,1.8756 -0.3597,0.7157 -0.6282,1.6997 -1.6512,1.6551 0.3522,1.0296 1.6058,0.6275 2.4963,0.8482 -0.038,1.7038 0.6284,3.4426 2.2387,4.5634 3.0859,1.4321 5.9465,4.4668 6.3088,7.9093 -0.2686,1.6549 -0.0489,3.4914 -1.5678,4.6506 -0.4884,0.3598 -1.03,0.5838 -1.6061,0.7164 0.2205,0.7646 0.9786,1.2113 1.1177,1.9693 0.2688,1.519 -0.2271,3.0413 -1.3932,4.1133 -0.4433,0.2686 -1.0718,0.2197 -1.4731,0.6219 0.8023,0.8971 1.5215,1.9689 1.4731,3.2643 -0.3559,0.5829 -0.8455,1.2504 -1.3795,1.4799 -3.129,0.6675 1.0236,2.6789 -0.4503,4.2917 -2.9052,-1.3864 -5.7259,-4.1135 -6.9728,-7.0669 -1.8821,-3.6182 -1.7885,-7.4621 -1.344,-11.534 0.6275,-1.4276 0.359,-2.9466 0.4949,-4.3819 0.088,-0.6699 -0.1359,-1.567 -0.67,-1.9691 -0.3629,1.5223 -0.9848,3.0902 -2.3257,4.026 -0.1815,-0.0876 -0.0455,-0.2686 -0.0935,-0.4018 -0.0392,-0.1328 0,-0.534 -0.2662,-0.447 -1.9236,1.2047 -2.3707,3.4881 -3.3556,5.3181 -0.1741,-0.2231 -0.223,-0.5764 -0.5797,-0.6698 -0.3141,0.8515 -0.4014,1.7876 -0.6219,2.6847 -0.2717,0.6708 0.1302,1.6972 -0.3621,2.1443 -0.1328,-0.1328 -0.3144,-0.1751 -0.4895,-0.1751l0 0.2686c0.1362,2.8606 0.3567,5.6322 1.6097,8.0004 -0.4888,0.4012 -1.1202,0.359 -1.6097,0.7611 -0.4043,0.4014 -1.4734,-0.0456 -1.3895,0.758 0.9852,1.0296 1.0297,2.4126 2.1475,3.4425 -2.9924,0.8515 -2.504,4.1135 -4.9168,5.6814 0.0424,0.6696 0.8912,0.1778 1.2047,0.7154 -0.1328,1.5613 -0.4012,2.9922 -1.3372,4.2003 0.0386,0.8036 0.7154,0.0879 1.1172,0.2696 0.5375,0.4468 0.4895,1.1169 0.758,1.6997 0.4013,1.2927 -0.4502,2.7727 0.3567,3.8869 0.4949,0.3592 0.2652,-0.3988 0.586,-0.5796 1.3833,1.7418 3.8863,2.775 4.7378,4.9648 0.2207,0.3568 -0.0869,0.9785 0.2663,1.205 0.4923,-0.3142 0.6697,-0.8483 0.5827,-1.2986 1.4288,-3.6215 -2.2833,-7.1546 -1.1178,-10.9994 0.5773,-1.7875 2.2323,-3.5754 4.2462,-3.8863 2.3715,-0.1332 4.6515,-0.266 6.6177,0.8059 -0.3599,0.846 -1.2995,1.1176 -2.1479,1.2048 -0.262,0.4023 0.1328,0.7166 0.4013,0.9396 0.8972,0.4891 1.2539,1.519 1.2047,2.5038 -0.2198,1.2917 -1.292,2.4129 -2.4093,2.9957 0.0453,0.8035 0.8936,0.758 1.3865,1.1178 0.5345,0.6276 0.897,1.2528 0.761,2.1499 -0.1329,0.4893 -0.5343,0.8915 -0.9429,1.2927 0.0457,0.7154 0.7612,1.1178 1.2047,1.5612 0.5896,4.5213 2.106,8.6737 5.5065,12.0292 3.9317,3.7114 10.1893,4.0253 14.9734,1.8356 4.1648,-1.3408 5.055,-5.5934 6.2218,-9.0748 0.3078,0.4891 0.1742,1.3373 0.4402,1.9204 1.1202,8.4959 10.0635,13.8588 16.68,17.7038 6.0368,2.9954 11.9837,6.6197 16.5437,12.252l0 0.3142c-5.5901,0.4503 -11.1321,-0.6698 -16.7254,-1.2527 -6.8853,-0.849 -13.2755,-2.1476 -19.847,-3.8902 -1.6073,-0.6701 -3.398,-0.8906 -5.0104,-1.5672 0.2683,-2.4136 1.9691,-5.629 -0.5351,-7.5568 -3.9806,-2.9923 -9.4794,-2.4095 -14.2635,-2.5911 -2.4162,-1.6972 -5.4575,-2.9466 -8.4498,-2.144 -0.7131,0.1748 -1.1209,1.1601 -2.0573,0.8492 -1.2526,-0.447 -2.5943,-0.5799 -3.7111,-1.2995 0.8971,-3.0794 1.8332,-6.2152 3.1738,-9.1204 0.356,-1.0721 -0.4467,-1.9237 -1.1173,-2.5454l-0.4015 0c-3.0868,-1.8791 -6.6589,-2.6814 -10.1504,-3.6244 -2.0571,-0.3565 -4.6026,0.1328 -5.8527,2.2345 -1.0789,2.4195 -1.9693,4.8713 -2.7794,7.3789 -1.0689,4.0708 -3.6658,7.7821 -3.1708,12.2489 2.1018,5.4995 7.9129,8.9033 12.8294,11.4495 0.9427,0.5338 1.8813,0.9359 2.9118,1.2045 0.8452,0.8092 2.0107,0.7646 2.8597,1.4344 -0.8491,2.3715 -1.7005,5.5451 0.4016,7.6016 2.6364,2.0961 5.7646,3.0413 8.6278,4.5601 7.4656,3.485 15.6501,5.179 23.5627,7.5537 1.6134,0.3589 3.4434,0.8026 4.9198,1.0297 12.4729,2.7658 25.7099,3.5307 38.4089,3.2164 13.1438,-0.0882 25.7982,-1.5613 37.9565,-4.4246 4.7411,-1.7004 9.7906,-2.5975 14.5324,-4.2914 0.9394,-0.4015 1.966,-0.6708 2.9088,-1.1212 4.6961,-1.606 9.2988,-3.7081 13.45,-6.4346 2.2386,-1.9693 1.3061,-5.1858 0.496,-7.515l0.3565 -0.3979c1.6583,-0.3598 3.0471,-1.4317 4.6539,-1.9267 5.1399,-2.815 11.5334,-6.2129 13.6775,-12.1141 0.049,-4.4273 -2.1441,-8.184 -3.174,-12.2484zm-41.311 -18.9187l0 0c0,0 4.7477,4.6962 5.3371,5.7393 0.5796,1.0332 1.5389,2.873 1.5513,3.3845 0,0 -0.7121,2.9731 -4.5404,3.1708 -3.8313,0.1946 -7.1421,-2.8563 -7.012,-6.4284 0.1294,-3.5727 2.6391,-4.6482 4.6639,-5.8662zm-15.3746 -14.0854l0 0c0.042,-1.2146 0.2162,-2.5556 1.3406,-3.077 1.1236,-0.5148 1.1691,-0.3855 1.1691,-0.3855 0,0 2.073,3.5048 2.727,4.4118 0.651,0.9129 3.8057,4.9783 5.5421,7.7499 0,0 -6.7983,5.8885 -7.1034,12.9844 0,0 -0.087,-1.8589 -0.3465,-2.8141 -0.262,-0.9525 -0.3434,-2.4683 0.9982,-3.1996l0.087 -0.5215c0,0 -1.2984,-0.3052 -1.2984,-1.0821 0,-0.7775 1.0811,-0.9136 1.0811,-1.5157 0,-0.6092 -0.7768,-0.7778 -0.9942,-0.8191 -0.2172,-0.0456 -1.3861,-0.0877 -1.9076,-1.9957 -0.5151,-1.907 -2.1177,-7.8735 -2.1177,-7.8735 0,0 0.7771,-0.6508 0.8226,-1.8621zm-22.9184 -26.4032l0 0c0,0 0.6475,0.3243 1.6226,0.1269 0.9752,-0.1882 2.1441,-0.7098 2.1441,-0.7098l0.907 0.5215 -3.0511 2.9833c0,0 -0.7123,1.0365 0.0679,1.0365 0.7777,0 0.9719,0.262 1.1012,0.5861 0.1301,0.3234 1.1043,0.4536 1.6226,0.3234 0.5182,-0.126 1.558,0.2594 1.6881,0.6518l4.9323 -0.6518 0.3235 -0.4526c0,0 -0.5149,-2.2712 -0.1906,-3.1161 0.3241,-0.8457 1.1044,-0.1981 1.8812,-1.1724 0.7778,-0.9716 2.7927,-2.5975 4.1559,-2.5296 1.3638,0.0613 1.7519,1.3665 2.0081,3.3746 0,0 -1.0979,-1.752 -3.1126,-1.4934 -2.015,0.263 -3.7022,0.5215 -4.3498,4.2885 0,0 0.0681,1.2992 0.6476,2.0763 0,0 -1.946,0.781 -4.2816,0.781 -2.3383,0 -5.9724,-0.7197 -7.0155,-1.3674 -1.0364,-0.6443 -1.5543,-1.752 -1.4923,-2.0794 0.0646,-0.3233 0.7835,-1.5547 0.3913,-3.1774zm-49.5375 47.0055l0 0c-0.0682,0.845 -0.1296,5.3247 -6.818,6.0338 0,0 -4.3889,0.0096 -4.79,-2.98 -0.2106,-1.5606 3.1024,-5.6516 3.945,-6.367 0.8451,-0.7131 3.1191,-2.9344 3.1191,-2.9344 0,0 3.394,2.17 4.291,3.6244 0,0 0.314,1.7773 0.253,2.6232zm8.9589 -9.5157l0 0c-0.1593,0.2327 -2.0764,1.0719 -2.2057,1.1688 -0.13,0.1036 -0.3923,0.295 0.0973,0.9136 0.4858,0.6122 1.0719,1.166 0.7121,1.4579 -0.3564,0.2943 -0.4862,0.3913 -0.4862,0.3913 0,0 -0.9068,0.062 -0.6798,0.515 0.2267,0.4602 0.7123,1.1731 0.9752,1.4643 0.2553,0.2917 0.2878,0.7476 0.1908,1.1044 -0.1004,0.3563 -0.2586,0.5504 -0.2879,1.004 -0.0387,0.4534 -0.1983,1.9792 -0.1983,1.9792 0,0 -0.5824,-4.185 -4.0899,-8.9265 -1.4809,-1.9985 -3.1161,-3.1809 -3.1161,-3.1809 0,0 0.1005,-0.5502 0.8092,-1.363 0.7165,-0.8099 5.4542,-7.6604 6.0736,-8.6644 0.6185,-1.0066 1.2012,-2.1468 1.752,-2.1468 0.3921,0 1.6904,0.816 2.0148,1.3018 0,0 0.1294,2.7917 0.9744,4.1524 0,0 -2.3707,8.609 -2.5354,8.829zm21.4606 -79.4451l0 0c0.1358,0 0.1805,0.1328 0.3134,0.2198 -0.1329,0.1816 -0.2652,0.4054 -0.2265,0.6318 0.4077,0.3532 0.81,0.6219 1.3473,0.6674 0.3567,0.583 -0.45,1.4278 0.3567,1.8365 0.4917,-0.1325 1.1624,-0.45 1.6515,-0.0945 -0.039,0.3632 -0.5347,0.4503 -0.8034,0.6708 -0.5339,0.8101 -1.2985,1.3438 -2.2311,1.208 -0.6287,-0.224 -0.408,-0.6708 -0.5832,-1.1143l0.1751 -4.0256zm5.0975 27.0442l0 0 -0.7514 0.5505 -0.6183 4.0519c0,0 -0.6866,-0.0712 -0.752,0.7514 -0.0739,0.8257 -0.3467,2.9541 -0.6931,3.0869 -0.3401,0.1391 -0.8907,0.1391 -1.2305,0.2785 -0.3467,0.1359 -0.7514,0.3399 -1.1693,0.0679 0,0 -0.5468,-20.3852 0,-26.3574 0,0 3.2264,0.0679 3.9775,-0.2073l0 0.4792c0,0 -0.4045,0.2073 -0.9585,0.1392 -0.5448,-0.068 -1.6423,-0.1392 -2.1218,0.2073l0 3.9774c0,0 1.2375,0.0738 1.7098,0.7577 0.4859,0.6866 1.3705,1.7132 2.1997,1.6452l0 0.8257c0,0 0.1359,0.6186 0.4079,0.6186 0.2785,0 0.4859,0.1326 0.4859,0.6833 0,0.5504 -0.4859,8.4439 -0.4859,8.4439z"/>
   <path class="fil2" d="M94.2252 5.7297l0.087 1.8756c-1.295,-0.1326 -2.8141,-0.3077 -4.1613,-0.6708 -0.2662,-0.8026 -0.3533,-1.7388 0.0937,-2.4095 1.3862,0.2653 2.9534,0.3532 3.9807,1.2047z"/>
   <line class="fil0 str1" x1="94.2252" y1="5.7297" x2="94.3121" y2= "7.6052" />
   <path class="fil0 str1" d="M94.3121 7.6052c-1.295,-0.1326 -2.8141,-0.3077 -4.1613,-0.6708 -0.2662,-0.8026 -0.3533,-1.7388 0.0937,-2.4095 1.3862,0.2653 2.9534,0.3532 3.9807,1.2047"/>
   <path class="fil2" d="M85.3699 4.8781c0,0.6701 0.5405,2.0563 -0.4435,2.1508 -1.4799,0.0416 -2.6851,0.7125 -4.1201,0.845 -0.4401,-0.5763 0.0488,-1.3407 -0.087,-1.9625 0.45,-0.4502 1.1655,-0.2686 1.6125,-0.7157 0.9395,-0.1814 2.0117,-0.7577 3.0381,-0.3175z"/>
   <path class="fil0 str1" d="M85.3699 4.8781c0,0.6701 0.5405,2.0563 -0.4435,2.1508 -1.4799,0.0416 -2.6851,0.7125 -4.1201,0.845 -0.4401,-0.5763 0.0488,-1.3407 -0.087,-1.9625 0.45,-0.4502 1.1655,-0.2686 1.6125,-0.7157 0.9395,-0.1814 2.0117,-0.7577 3.0381,-0.3175z"/>
   <path class="fil2" d="M94.2252 12.2594l0.087 3.0833c-1.4344,-0.2238 -2.7695,-0.3142 -4.2949,-0.6707 -0.4437,-0.9841 0.0944,-2.1019 -0.087,-3.4426 0.5829,-0.1325 1.2982,-0.1325 1.8811,0 0.8914,0.1328 1.6558,0.5347 2.4138,1.03z"/>
   <line class="fil0 str1" x1="94.2252" y1="12.2594" x2="94.3121" y2= "15.3427" />
   <path class="fil0 str1" d="M94.3121 15.3427c-1.4344,-0.2238 -2.7695,-0.3142 -4.2949,-0.6707 -0.4437,-0.9841 0.0944,-2.1019 -0.087,-3.4426 0.5829,-0.1325 1.2982,-0.1325 1.8811,0 0.8914,0.1328 1.6558,0.5347 2.4138,1.03"/>
   <path class="fil2" d="M85.282 11.2294c0.4478,1.2048 -0.048,2.1509 0.088,3.4426 -1.5612,0.4021 -3.1775,0.6707 -4.7385,1.2047l0 -3.1739c1.3407,-1.1136 2.8597,-1.2917 4.6505,-1.4735z"/>
   <path class="fil0 str1" d="M85.282 11.2294c0.4478,1.2048 -0.048,2.1509 0.088,3.4426 -1.5612,0.4021 -3.1775,0.6707 -4.7385,1.2047"/>
   <line class="fil0 str1" x1="80.6314" y1="15.8767" x2="80.6314" y2= "12.7028" />
   <path class="fil0 str1" d="M80.6314 12.7028c1.3407,-1.1136 2.8597,-1.2917 4.6505,-1.4735"/>
   <path class="fil3" d="M88.9003 4.8781c0.3592,1.0722 -0.4435,2.9535 1.03,3.1775 1.5222,0.4011 3.1347,0.3142 4.3818,1.2983l-0.087 1.4287c-1.6102,-0.3566 -3.1774,-0.8938 -4.9167,-0.9394 -0.6709,0.8033 -0.2687,2.2377 -0.4081,3.1289l-0.1747 1.6129c-0.9395,-0.3599 -2.8629,0.8515 -2.413,-1.0299 -0.0944,-1.072 0.8516,-2.8148 -0.5415,-3.6183 -1.6971,0.2663 -3.4845,0.4893 -5.0517,1.111l0 -1.6938c1.6997,-0.7155 3.4425,-1.2528 5.4118,-1.2983l0.2687 -0.2687 0 -3.0836c0.6248,-0.4926 1.561,-0.1783 2.3256,-0.2653l0.1747 0.4402z"/>
   <path class="fil3" d="M124.0932 10.7826l1.8756 -0.3109 0 0.1748c-3.398,4.295 -8.3594,5.1856 -13.2372,6.0827 -6.1216,0.9841 -11.6214,-0.5382 -17.3896,-1.2047 -0.3558,-0.6708 -0.1327,-1.2537 -0.1807,-2.057 0,-2.3249 -0.0878,-4.295 0.087,-7.0669l0.2687 -0.4022c8.6802,4.0263 18.6008,6.8439 28.5763,4.7843z"/>
   <path class="fil4" d="M49.6455 49.1883c2.4162,3.0413 6.7536,5.0985 6.8863,9.2118 -0.5832,0.4012 -1.2926,1.1592 -2.2387,0.7636 -0.8485,-0.5829 -1.6518,-2.1051 -2.9467,-1.5216 -0.6708,0.4014 -1.0723,1.208 -0.7615,1.9627 0.2656,0.2752 0.2656,0.6309 0.3594,0.9394 -0.7156,-0.1335 -0.9844,-0.8915 -1.0723,-1.4744 0.175,-0.4891 -0.2718,-1.2537 -0.761,-1.6093 -0.5829,-0.0912 -1.1624,-0.1783 -1.6093,-0.5349 -0.5831,-0.6698 0.8902,-2.0561 -0.5343,-1.8746 -0.9391,0.9775 -1.0785,3.1282 -2.9085,2.5909 -0.5381,-0.8971 -1.6101,0.3559 -2.0146,-0.8971 -0.6252,0.1807 -1.2953,0.0481 -1.7877,-0.3084 -0.8525,-0.8971 -0.9854,-2.0629 -1.5646,-3.047l-0.1784 0c0.0457,2.1051 0.9854,4.2524 3.0416,5.4605l0.0877 0.3135c-0.4022,0.4891 -1.3862,-0.2263 -1.4743,0.4412 0.8034,0.4501 1.7397,0.7188 2.6856,0.4501 -0.1817,0.6219 -1.704,0.3558 -0.8098,1.0299 0.8098,0.087 1.5189,-0.447 2.3288,-0.272l0 0.272c-0.1815,0 -0.2719,0.223 -0.402,0.3109 0,0.1325 0.1749,0.2263 0.3076,0.3532 0.6318,0.0936 1.1665,-0.9361 1.7496,-0.175 5.8552,2.4584 11.3125,8.1389 12.4727,14.3964 1.742,1.8822 1.9625,4.4732 2.3249,6.7981 0.0912,1.743 -0.0937,3.3555 -0.5375,4.829 -0.2205,-1.567 0.3569,-3.5753 0,-5.0977 -0.1323,-0.6285 -0.0902,-1.519 -0.7609,-1.7876 -0.7122,0.5829 -0.1361,1.0722 -0.1749,1.7876 -0.1391,1.3408 0.3531,3.0836 -0.8516,3.7994 -0.7646,0 -0.6708,-0.8036 -0.9393,-1.2927 0.0423,-1.6997 0.5372,-4.5629 -1.1178,-5.6804 -0.3143,0.4468 0.1752,1.0296 0.2685,1.4734 0.039,1.6135 -0.048,3.1348 -0.2685,4.5604 0.0422,0.7643 0.5769,1.2536 1.0266,1.7909 2.504,2.4582 5.678,5.2731 7.6436,8.2721 1.6584,3.2618 -0.8936,6.5294 0.3599,9.972 0.0456,1.4743 -0.3599,3.0347 -0.7574,4.47 0,2.3256 1.0719,6.3024 -1.4745,7.8221 0.8457,-2.015 1.3416,-4.4243 1.1146,-6.6174 -0.1754,-0.0455 -0.3145,-0.3565 -0.4505,-0.0872 -0.4437,0.8026 -0.6219,1.7423 -0.9361,2.5938 -0.0873,-1.1204 1.1178,-2.0107 0.2721,-3.0895 -0.4079,0 -0.7636,0 -1.0298,0.314 0.0454,0.0484 -0.0481,-0.4019 -0.2755,-0.4889 -0.6665,0.1358 -1.0197,1.0264 -1.6484,1.2078 -0.4011,0 -0.6704,0.4014 -1.0294,0.4014 0.984,-1.0719 2.3706,-1.8746 3.0411,-3.1774 0.4471,0.0488 1.0298,-0.0387 0.942,-0.5794 -0.2264,-0.6254 -0.3135,-1.3408 -0.6277,-1.924 0.8026,-2.4581 2.0563,-5.4537 0.3556,-7.9121 0.447,-3.2197 -2.9021,-4.3406 -5.0072,-5.503 -1.1168,-0.1295 -2.2344,-0.7124 -3.1774,-1.4735l-0.3976 0.4469c-0.447,-0.2205 -0.7164,-0.8905 -1.2993,-0.9393 -0.447,-1.2504 -1.1593,-2.7727 -2.5035,-3.2618 -1.5641,0.3565 -2.9083,-0.4469 -4.1622,-1.1169 -0.3072,0.1816 -0.2195,0.5763 -0.1324,0.7612 0.6771,1.9658 3.1349,0.6252 3.8444,2.5943 1.0789,1.8298 2.4196,3.216 4.4725,3.75 0.8069,0.4894 1.8366,0.5382 2.689,0.9851 -1.7919,1.3408 -4.295,1.5603 -6.4456,1.1202 -2.0084,0 -4.1134,-0.583 -6.0336,-1.2081 -0.4893,-0.3589 -1.2047,-0.3589 -1.655,-0.8092 -1.1176,-0.8033 -2.7271,-1.6069 -2.8149,-3.1747 -0.22,-1.1136 0.3143,-1.8746 0.6707,-2.9019 1.9236,2.2386 4.8289,3.0413 7.8244,3.2618 0.0455,-0.087 0.2274,-0.1326 0.1786,-0.2654 -1.2113,-0.8066 -2.8176,-0.6707 -4.1103,-1.208 -1.4343,-0.5803 -3.1771,-1.6067 -3.7114,-3.2618 -0.0489,-1.2983 0.4014,-2.4161 0.3561,-3.7112 2.3221,0.4885 4.8287,-0.1783 6.0789,-2.2353 0.5383,-1.3862 0.2688,-3.3555 -0.8478,-4.5636 -0.758,-0.4892 -1.5227,-0.9361 -2.4131,-1.0297 0.7581,-0.2686 1.6551,-0.0872 2.4131,0.3598 1.0232,0.1807 1.0719,2.6813 1.9623,0.9394 0.1391,-0.985 -0.1749,-1.9693 -0.758,-2.7727 0.9844,-0.3142 0.0491,-1.208 0.094,-1.7876 -0.5829,-0.7197 -1.6128,-1.1601 -1.2983,-2.1442 -0.8038,-1.5679 -2.5466,-2.8216 -4.2014,-2.6855 0.3565,-0.1784 0.8456,0.0455 1.1142,-0.3559 -0.8449,-2.057 -3.5305,-0.1814 -4.557,-2.2386 -3.9385,-3.6632 -3.8447,-8.5401 -2.5978,-13.4114 0.6287,-1.5646 1.9693,-2.9508 3.4463,-4.0719 1.0272,-0.3075 2.5495,0 3.2652,-1.3407 1.8297,-0.8026 3.3552,0.8938 4.8289,1.7909 0.3954,0.8033 1.4282,1.3863 1.561,2.3224z"/>
   <path class="fil4" d="M73.2984 68.6407c1.8822,1.0721 2.5042,2.9956 4.4733,3.7055 1.2047,0.719 2.5033,1.6617 3.4424,2.6847 -0.4465,0.1361 -0.6698,0.583 -1.1167,0.583 -0.8034,-1.2983 -2.0569,-2.3217 -3.2651,-3.086 -0.1785,0.9417 1.1593,1.4311 1.4765,2.2377l0.5807 0.9361c-0.3143,0.0938 -1.0719,0.8092 -1.1178,-0.0879 -0.5827,-1.2048 -1.1179,-2.4584 -2.2378,-3.4426 -0.2205,0 -0.5346,0 -0.5804,0.2687l1.1177 3.6241 -0.1816 0.2205c-0.6698,-1.2537 -0.2685,-3.3489 -1.6549,-4.2038 -0.4891,0.6734 0.0485,1.4311 0.2751,2.0596 0.1303,0.6708 0.2631,1.3865 0.4438,2.0117 -0.2233,0.4011 -0.6703,0.0387 -1.0332,0 0.1393,-1.6103 -0.1747,-3.2654 -1.3799,-4.4278 -1.3403,0.2719 -1.4796,-1.5224 -2.6844,-2.057 -1.4287,-0.8516 -3.3103,-1.9693 -4.9168,-0.8516 -0.6253,0.8516 -2.5067,0.4957 -1.7908,2.057l0.4501 1.208c-0.6701,3.2188 -0.496,6.4417 -1.568,9.4828 -0.3134,-1.0785 -0.4884,-2.3256 -0.9384,-3.4425 -0.1329,-1.3474 -1.3385,-2.5942 -0.6287,-3.9807 0.7157,-2.0596 1.1202,-4.2917 1.7488,-6.4424 0.175,-1.159 1.3383,-2.0563 2.4101,-2.3249 3.2645,0.2266 5.6349,2.5522 8.6762,3.2676z"/>
   <path class="fil4" d="M120.3397 66.0696c0.0066,0.087 -0.0422,0.2198 0.0936,0.262 0.0457,-0.0422 0.0905,-0.0872 0.0873,-0.1783 1.3281,1.8143 1.2826,4.3596 2.3488,6.3546 0.1096,1.1176 0.9744,2.222 0.4147,3.2552 -0.9072,1.7585 -1.0988,3.78 -1.4643,5.7071 -1.0431,-3.0669 -1.2371,-6.6432 -1.8267,-9.8072 0.3467,-0.6285 0.7805,-1.4442 0.3201,-2.1508 -0.1839,-0.2205 -0.4525,-0.3044 -0.7668,-0.2594 -1.0398,-0.6924 -2.2579,-1.2986 -3.6376,-0.8673 -1.7753,0.6541 -3.1417,1.8848 -4.2326,3.4261 -0.1335,-0.1807 -0.4478,-0.0839 -0.6286,-0.0839 -1.1401,1.1401 -1.4709,2.7595 -1.2181,4.2752 -0.3074,0.2719 -0.6706,0.3655 -1.023,0.3274 -0.1201,-1.519 0.7579,-2.6077 0.8648,-4.0388l-0.3143 -0.2627c-1.1923,1.0496 -0.9784,2.7883 -1.4966,4.1847 -0.0878,0 -0.1325,0.0903 -0.1747,0.1391 0.0222,-1.2983 0.8065,-2.5621 0.9584,-3.9548 -0.1328,-0.2198 -0.3592,-0.175 -0.583,-0.1683 -1.0556,1.0919 -1.7877,2.4873 -2.3481,3.838 -0.2231,0.1392 -0.6286,-0.0714 -0.8516,-0.2521 0.2587,-0.4477 0.5629,-0.9427 0.8258,-1.3961 0.1652,-0.5864 1.4991,-1.0565 0.9944,-1.8044 -1.1435,0.9528 -2.4676,1.9178 -3.2064,3.2263 -0.3209,-0.1684 -0.593,-0.4379 -0.9527,-0.5182 0.3921,-0.8102 1.2313,-1.276 1.8499,-1.908 0.5761,-0.058 0.7055,-0.5993 1.1914,-0.8712 1.2894,-0.5573 2.3836,-1.5223 3.2162,-2.7428 0.5315,-0.3665 1.2379,-0.8715 1.7204,-1.3252 3.4326,-0.5081 6.1763,-4.7161 9.7449,-2.6756l0.0946 0.2696z"/>
   <path class="fil5" d="M90.6945 72.2582c0.1785,0.7164 0.534,1.3474 0.5764,2.1508 0.0912,0.9851 -0.1748,1.7818 -0.489,2.5912 -1.0266,3.0834 -4.4277,5.1397 -7.2419,6.2575 -4.8776,1.5679 -10.5526,1.8365 -15.1574,-0.4893 -1.8369,-1.2917 -3.9353,-2.9466 -3.6663,-5.4995 -0.269,-1.0781 0.4887,-1.7421 0.6698,-2.6848 0.3564,-0.7124 1.2047,-1.3865 2.0567,-1.4735 0.9397,-0.2686 1.5615,0.4469 2.2315,0.7155 0.6286,0.5382 0.7163,1.2985 0.9426,1.9693 0.3565,1.2047 -2.322,2.7659 0,3.4425 0.4438,0.088 0.894,0.1748 1.3829,0.2696 1.1238,0.4435 2.462,0.3142 3.7147,0.4882 3.6666,-0.2687 7.7766,-0.8516 9.9695,-4.2003 0.6285,-1.0299 -0.8033,-1.7487 -0.5763,-2.6848 -0.139,-0.7164 0.1741,-1.208 0.4885,-1.8756 0.6219,-0.9393 1.7428,-1.0332 2.7726,-0.8515 0.849,0.4468 1.8756,0.9394 2.3256,1.8746z"/>
   <path class="fil5" d="M98.5158 71.9026c0,0.9394 0.088,2.1442 -0.6698,2.8629 -0.2722,1.3865 1.0719,2.2346 1.9658,3.0869 3.8895,2.1855 9.8783,2.9468 14.0399,0.8483 0.2205,-0.8939 -0.3102,-1.2114 -0.631,-1.8789 -0.039,-1.1658 -0.3079,-1.9691 0.5437,-2.9079 0.8484,-0.8033 2.102,-1.1598 3.2622,-0.7164 1.7417,1.2113 2.1438,3.4881 1.7417,5.5031 -0.7576,2.4551 -3.1705,4.0677 -5.5475,4.8322 -0.3956,0 -0.9328,0.2654 -1.4254,0.4403 -6.9732,1.2537 -14.6649,-0.2264 -18.6912,-6.0337 -1.072,-1.8365 -0.8034,-4.7418 0.4925,-6.4389 0.8939,-0.8971 2.1922,-1.3376 3.4427,-1.0299 0.4923,0.4021 1.2113,0.7645 1.4766,1.432z"/>
   <path class="fil5" d="M92.8387 70.027l0 0.3566c-2.3255,0.5829 -4.1131,-1.3865 -5.3213,-3.0413 0.6698,-0.583 1.5669,-0.088 2.3249,-0.088 1.2537,0.4436 2.4135,1.5613 2.9963,2.7727z"/>
   <path class="fil5" d="M96.6344 68.8157c-0.7577,0.0936 -1.561,0.5829 -2.4093,0.6708l-1.4809 -1.7886c0.6284,-0.3556 1.6136,-0.8026 2.417,-0.3556 0.6698,0.2686 1.1202,0.8971 1.4733,1.4734z"/>
   <path class="fil5" d="M86.889 68.9093c-0.9362,0 -1.2927,0.7098 -2.1442,0.8459l-2.144 -2.2312 0.0877 -0.2696c1.7421,-0.3142 3.2643,0.3109 4.2005,1.6549z"/>
   <path class="fil5" d="M106.523 68.372c0.2653,0.3982 0.2653,1.1592 0,1.5646 -0.496,0.3592 -0.9851,0.9361 -1.6135,0.534 -1.2081,-0.6219 -1.5639,-1.7421 -2.3249,-2.7727 0.897,-0.4436 1.6996,-0.3556 2.6391,-0.3556 0.4022,0.3142 1.0238,0.4502 1.2993,1.0296z"/>
   <path class="fil5" d="M101.8714 68.9971c0,0.4894 0.8,0.6701 0.6251,1.2047 -0.8515,0.583 -1.9692,0.496 -2.8595,0.0939 -1.0332,-0.495 -1.6551,-1.7007 -2.151,-2.6848 0.9428,-0.5829 1.4319,-0.0456 2.504,-0.087 0.7191,0.3075 1.3864,0.8024 1.8815,1.4732z"/>
   <path class="fil5" d="M82.9571 69.7551l0 0.2719c-1.6974,0.4012 -3.8447,0.6252 -4.9166,-0.9361 -0.1817,-0.4502 -0.0488,-0.9841 0.1747,-1.393 1.9268,-0.9385 3.5761,0.4959 4.7419,2.0572z"/>
   <path class="fil4" d="M86.2182 41.367c0.2694,0.4884 -0.1749,1.2495 0.3631,1.606 1.1111,-0.1325 2.9923,0.7646 3.436,-0.7577l0 -0.7613c0.81,-0.2686 1.7941,-0.1748 2.64,-0.087 0.3599,0.4884 -0.0873,1.5637 0.7154,1.606 0.9395,-0.4011 2.6402,0.496 2.9967,-0.7577l0 -0.8483c1.0745,-0.4502 2.3214,0.087 3.4425,-0.0879 0.2263,0.3533 0.4012,0.8033 0.1781,1.2047 -0.4891,0.1748 -1.2048,0 -1.3862,0.6708 0,0.7577 -0.5349,1.4285 -1.1178,1.7418 -0.4891,0.4477 -1.6093,-0.1358 -1.5611,0.8492 -0.0939,0.3625 0.1335,0.8066 -0.2263,1.0332 -2.7271,0.3075 -5.7683,0.1326 -8.3595,-0.0938 -0.3563,-0.4435 0.0458,-1.4285 -0.8515,-1.6971 -0.7578,-0.2273 -1.7885,-0.0915 -2.232,-0.8974 -0.1328,-0.4468 -0.0456,-0.9358 -0.5373,-1.2501 -0.2718,-0.224 -0.7612,0.1325 -0.9427,-0.2686 -0.4891,-2.1898 2.3707,-1.2048 3.4426,-1.2048z"/>
   <path class="fil4" d="M95.6105 48.6086c-0.1806,0.5797 0.5348,1.966 -0.6244,1.7007l-7.1578 -0.0879c-0.4435,-0.5406 -0.0423,-1.2114 0,-1.791 2.3224,-0.1328 5.0976,-0.1328 7.6015,0l0.1806 0.1781z"/>
   <path class="fil4" d="M95.6986 51.6076l0.2263 6.5228c-2.3283,0.088 -5.4989,0 -8.4987,-0.087 0.0913,-2.1475 -0.2229,-4.829 0.2662,-6.798l0.3141 -0.1784 7.4234 0.0906 0.2687 0.45z"/>
   <path class="fil4" d="M96.5465 59.0699c0.4504,0.7157 0.1361,1.7877 0.3567,2.5912l-0.3567 0.1814 -10.1465 -0.0936c-0.1817,-0.8459 0,-1.782 0.1813,-2.5853 3.5304,-0.4047 6.5715,-0.0481 9.9652,-0.0938z"/>
   <path class="fil4" d="M97.933 63.316c0.2693,0.4959 0.2693,1.3474 0,1.7883 -4.0643,-0.2205 -8.5855,0.0938 -12.738,-0.266 -0.2262,-0.4503 0,-1.1143 0.1749,-1.6093 4.2918,-0.1328 8.5856,-0.1328 12.563,0.087z"/>
   <path class="fil5" d="M85.6841 31.2158c-0.7153,0.8069 0.9844,1.9245 -0.4021,1.9667 -0.3555,-1.785 -2.9954,0.1774 -2.3248,-2.057 -0.1815,-0.3565 -0.9851,-0.3109 -0.8034,-0.7124 0.4471,-0.1325 0.9361,-0.4957 1.2047,-0.9427 -0.4893,-0.9394 -1.4311,0.4014 -1.9627,-0.1748 0.1329,0 1.2051,0.0879 1.4735,-0.4959 -0.0936,-1.0264 -1.4308,-0.2687 -2.0628,-0.6252l-0.1749 0.2696c-0.3142,-1.4321 0.538,-2.5523 0.4014,-3.7991 -0.3594,-0.447 0.1812,-0.7613 0.2693,-1.1179 0.8903,2.7271 5.2302,4.334 4.3819,7.6886z"/>
   <path class="fil5" d="M105.2237 30.769c0.0912,0.4021 -0.136,0.9361 -0.4927,1.2992 -0.7603,0.6698 -2.1921,0.4891 -2.4161,1.5613 0.8102,0.6698 1.3865,-0.3077 2.1509,-0.3566 0.6219,0.0489 1.2471,-0.0455 1.7817,-0.3598 0.719,-0.6252 0.9453,-1.4278 1.2986,-2.2315 0.2237,-0.1814 0.5372,-0.0935 0.8068,-0.0935 -1.1212,1.2983 0.4011,3.8437 -1.5646,4.6505 -0.6285,0.2719 -1.5646,0.1358 -2.1475,-0.3566 -0.4015,-0.4011 -0.7579,-0.8938 -1.2952,-0.8515 -0.5348,0.9427 1.1592,1.4344 1.0266,2.4194 0.1326,0.8905 -0.2687,1.7004 -1.0266,2.1442l-1.2994 0c0.4503,-0.2686 1.2082,-0.3565 1.4745,-1.0266 0.4045,-0.8971 -0.3086,-1.5679 -0.4412,-2.3289 -0.6766,-0.8457 -1.7943,-1.208 -2.5969,-1.0264 -1.2504,0.3142 -2.8149,0.9841 -3.0835,2.4126 -0.1816,1.0299 -0.1816,2.4162 -0.2686,3.2676 -0.7611,-1.3471 -0.6709,-3.4034 0.2686,-4.7443 0.5829,-1.072 2.0563,-0.7552 2.3249,-2.0537 1.4742,-1.3895 4.2467,-0.5373 4.9168,-2.9086 0.3565,0 0.3565,0.4022 0.5829,0.583z"/>
   <path class="fil5" d="M87.5174 33.856c-0.1325,0.6252 -0.5346,1.5187 0,2.0983 0.6698,0.0912 0.9394,-0.7578 1.5223,-0.9808l2.0081 -0.4055c-0.897,0.5804 -1.7394,1.4775 -2.6789,1.9691 -0.3141,0.1784 -0.4079,-0.2686 -0.6765,-0.2686 -0.5282,0.3142 -0.3954,1.1634 -1.1111,1.3864 0.2208,-0.4014 0.4435,-0.8905 0.3078,-1.2985 -0.1328,-0.0879 -0.2206,-0.2693 -0.4014,-0.1748 -0.4892,0.4435 -0.4892,1.0719 -1.0271,1.4734 -0.1329,-0.2686 0,-0.8035 -0.447,-1.0299 -0.7578,0.0906 -0.359,2.0596 -1.2951,0.8483 -0.4927,-0.0413 -0.7163,0.5829 -1.1175,0.7164 0.1747,-0.1335 0.1747,-0.8912 -0.3595,-0.985l-0.9392 0.719 -0.0881 -0.8516c-0.7154,-0.3077 -1.1655,0.5829 -1.7005,0.8516 -0.2685,-0.4917 1.6139,-0.8059 0.5839,-1.4735 -0.5839,-0.0938 -0.8524,0.6219 -1.3861,0.6219 0.2651,-0.8515 1.2983,-0.5349 1.5636,-1.2926 0.8,0.4891 2.0116,0.3077 2.7694,-0.1807 1.1657,-1.3416 2.9085,-1.7005 4.4731,-1.7428z"/>
   <path class="fil5" d="M92.57 35.7795c-0.2693,0.985 -0.3564,2.5463 0.0873,3.5304l0 0.6708c-1.2047,0.2197 -2.8597,-0.088 -3.7569,0.2653 -0.2237,0.6285 0.0905,1.1211 -0.2628,1.7007l-1.1201 -0.0913c-0.3533,-0.5763 0.4012,-1.6551 -0.6284,-1.8748 -0.2206,0.0872 -0.5765,0.0872 -0.7578,-0.1814 -0.088,-0.8036 0.6708,-0.9851 1.2078,-1.2953 0.8482,-1.0719 2.1897,-1.4318 3.0869,-2.4168 0.7091,-0.1328 1.3407,-0.7125 1.7419,-1.4278 0.8972,-0.0456 0.1328,0.7154 0.4021,1.1202z"/>
   <path class="fil5" d="M96.0997 20.0847c0.3143,-0.1816 0.2696,-0.6707 0.7165,-0.4959 0.897,0.5829 0.4012,2.5978 1.9689,2.0563 0.5374,0.9394 -1.9241,0.7645 -0.9391,1.8821 0.3108,-0.0938 0.7578,-0.1816 0.8448,0.2687 -0.0387,0.4469 0.0944,1.0719 -0.4402,1.2047l-0.2265 0c0,-0.3556 0.4917,-0.8026 -0.0912,-1.0299 -0.4014,-0.087 -0.5339,0.2273 -0.7156,-0.1748 0.049,-0.2264 0.4502,-0.4503 0.1816,-0.7646 -0.4959,-0.087 -0.9395,-0.9359 -1.4742,-0.3556 -0.3143,-0.1781 -0.1361,-0.7164 -0.583,-0.6675 -0.3558,-0.0936 -0.758,0.1784 -1.0298,0.4894 -0.1359,-1.1601 -0.2231,-2.1052 0.0905,-3.3556 0.6708,0.1392 1.0273,0.8972 1.6971,0.9427z"/>
   <path class="fil5" d="M80.8064 21.8268c-1.0719,0.4021 0.2265,1.6067 -0.709,2.144 0.0446,0.7613 0.2689,1.3865 -0.1816,2.0605 -0.6707,-0.4477 -0.9851,-1.2504 -1.2992,-1.9693 0.2729,-0.8945 0.4959,-1.9209 1.0721,-2.5909l0.2271 -0.6741c0.4505,0.1394 0.583,0.7157 0.8906,1.0299z"/>
   <path class="fil5" d="M92.3463 22.2289c0,0.1326 0,0.4882 0.3109,0.6217l0.2687 0c0.0912,0.2755 -0.2687,0.2299 -0.2687,0.4503 -0.0422,0.4468 0.3142,0.8515 0.7154,0.9419 0.3143,0.0421 0.5383,0 0.7581,-0.1809 -0.356,0.1361 -0.8451,0.5373 -1.292,0.3559 -0.6708,-0.3077 0.1784,-1.4735 -0.7578,-1.5672 -0.6284,0.5441 -0.2695,1.5672 -0.7189,2.0631 -0.178,0.7577 -0.8944,1.4285 -0.489,2.3256 -0.2274,0.8906 -1.0307,0.9841 -1.7464,1.2917 -0.8032,0.1817 -1.6548,0.1817 -2.3246,0.5382 0.3131,-1.8788 3.0403,-1.0721 3.5294,-3.038 -0.6219,-0.4926 -1.1136,0.4436 -1.6939,0.6243l-0.9451 0.3142c-0.0881,-0.4469 0.3141,-0.8516 0.5829,-1.2114 0.5373,-0.1748 1.1657,-0.8026 1.7421,-0.4011 0.4959,-0.0423 0.2695,-0.6708 0.2272,-0.9394 -0.4892,-0.447 -0.3141,-1.0231 -0.0937,-1.5672l0.1806 -0.1748c0.2273,0.3556 0.5829,0.719 1.0306,0.7577 0.5373,-0.5347 -0.3598,-1.4741 0.3558,-2.057 0.3631,0.2687 1.0264,0.1361 0.6285,0.8525z"/>
   <path class="fil5" d="M92.4822 28.7997c-0.7155,0.9427 -1.3471,1.7006 -1.3471,2.8182 0.1812,0.2231 0.4076,0.3142 0.6763,0.2687 -0.6274,1.4353 -2.2826,1.208 -3.2675,2.1442 0.0455,-1.2927 2.0573,-1.8756 2.1507,-3.349 -0.1358,-0.1814 -0.2685,-0.227 -0.45,-0.1814 -0.7579,0.8972 -1.7429,1.7877 -2.4161,2.7727 -0.5314,-1.1624 2.014,-2.0572 1.6582,-3.8026 1.1146,0.1328 1.9659,-2.3673 2.9956,-0.6707z"/>
   <path class="fil5" d="M88.4568 29.6489c0.3133,1.3016 -1.4741,1.7909 -1.7496,2.8629 -0.4402,-0.5797 -0.3531,-1.072 -0.126,-1.83 0.2653,-0.8099 1.1111,-0.985 1.8756,-1.0329z"/>
   <path class="fil5" d="M94.1307 26.4748c-0.0416,0.2263 -0.262,0.3142 -0.356,0.495l-0.4021 0c-0.087,-0.2687 0.1817,-0.4078 0.224,-0.583 0.1781,0.0423 0.4013,-0.0446 0.5341,0.088z"/>
   <path class="fil5" d="M97.5738 27.4134c0.1394,0.2694 -0.1747,0.2694 -0.2627,0.3599 -0.4949,0 -0.5373,-0.534 -0.6766,-0.8971 0,-0.1751 0.0481,-0.4894 0.2687,-0.4014 0,0.4014 0.3142,0.8026 0.6706,0.9386z"/>
   <path class="fil5" d="M96.1943 28.0875c0.4013,0.3566 0.758,0.7122 0.7089,1.2959 -0.0421,-0.0488 -0.087,-0.1367 -0.1749,-0.0879 -0.0456,0.2653 0.1749,0.5347 -0.1817,0.8033 -0.4881,-0.4957 -0.1324,-1.7494 -1.0296,-2.0114 -0.5763,0.3979 -0.0423,1.0264 -0.087,1.5613 -0.4022,-0.447 -1.2992,-0.6675 -0.9394,-1.3865 0.4501,-0.2653 0.6318,-0.985 1.2081,-1.1176l0.4957 0.9427z"/>
   <path class="fil5" d="M94.7135 31.1255c-0.4438,-0.4014 -0.3109,-1.0266 -0.8449,-1.3831 0.4435,0.224 0.8904,0.8035 0.8449,1.3831z"/>
   <path class="fil5" d="M93.8687 32.5118l-0.2721 0.5829c0.2264,-0.9394 -1.5645,-1.6971 -0.1294,-2.4129 0.2621,0.5764 0.6635,1.2048 0.4015,1.83z"/>
   <path class="fil5" d="M92.6996 26.0726l-0.4147 -0.3074c0,0 -0.1069,0.3598 0.1004,0.6216 0.2106,0.2597 0.3143,-0.3142 0.3143,-0.3142z"/>
   <path class="fil5" d="M95.07 25.7036c0,0 0.5348,-0.4045 0.9584,-0.4144 -0.1517,0.0165 -0.5919,0.0323 -0.5919,0.0323 0,0 -0.2139,-0.3399 -0.2139,-0.991 -0.1269,0.7059 -0.34,1.1434 -0.34,1.1434l0.1874 0.2297z"/>
   <path class="fil4" d="M142.5997 46.1081c1.9243,0.577 3.712,2.591 4.3827,4.4665 1.2983,5.0104 0.8483,10.646 -3.5306,13.9494 -1.2959,0.3142 -3.0379,0 -3.6242,1.432 0.1327,0.5829 0.7638,0 1.03,0.4469 -1.5192,-0.1781 -2.8183,0.8938 -3.8448,2.0563 -0.0938,0.4924 -0.5339,0.985 -0.3597,1.4774 -0.894,0.7613 -1.6097,1.6128 -1.4735,2.772 0.0912,0.1781 0.2653,0.2271 0.4469,0.2271 -0.67,0.9361 -1.117,2.2314 -0.5341,3.2164 0.0873,0.1325 0.1784,0.2651 0.3526,0.2195 0.5836,-1.0264 1.2992,-1.7418 2.4136,-2.056l1.3861 0c-1.2053,0.3622 -2.6788,0.8515 -3.1288,2.2376 -0.5764,1.072 -0.5764,2.4585 0,3.5305 1.0719,1.519 2.8661,2.5034 4.9234,2.3291l0.9325 -0.2728c0.0938,1.7463 1.0779,3.8904 -0.4891,5.1888 -1.7428,2.0115 -4.246,2.2801 -6.614,2.815 -0.0939,0.087 -0.272,0.1814 -0.272,0.3556 0.6741,0.5415 1.4734,-0.2198 2.3223,-0.087 2.0629,-0.6252 4.1202,-1.2047 5.6806,-2.9956 0.4891,1.1657 1.0305,2.727 0.2693,3.935 -0.8972,1.0297 -2.1441,2.0563 -3.4432,2.5031 -3.1286,1.48 -6.9277,2.2387 -10.5975,1.6551l-0.2686 0c-0.1747,-0.223 -0.6218,-0.223 -0.9361,-0.3558 -0.3141,-0.4469 -1.2537,-0.1326 -1.2079,-0.849 2.9955,-0.67 6.037,-2.2379 7.4688,-5.0975 0.8449,-1.3862 3.3522,-0.5382 3.5297,-2.727 -0.4951,-0.3566 -0.9352,0.3142 -1.4311,0.4893 -1.0719,0.2719 -1.9235,0.6698 -3.0413,0.4469 -1.3407,0.5372 -2.0114,2.0173 -2.3191,3.2644 -0.583,0.0455 -0.8548,0.7153 -1.2984,0.9359 -0.6706,-0.9783 -1.3473,0.6318 -2.0571,0.7644 -0.6764,0.1816 -1.0785,0.0423 -1.7004,0.3598 -1.6998,1.0267 -4.1614,1.83 -4.7379,4.068 0.1749,1.969 -1.4318,3.5751 -0.81,5.3179 0.1816,1.8814 2.0183,3.7993 0.5373,5.6806 -0.1739,0.4019 0.2727,0.7096 0.5414,0.7585 0.5764,-0.2238 0.6253,0.3591 0.8515,0.6278 0.7578,0.8912 1.83,1.6067 2.7239,2.4128 -1.03,0.0879 -2.014,-0.7577 -2.6359,-1.4734 -0.1361,0.1325 -0.4536,0.1325 -0.4536,0.3532 0.6733,1.166 1.2113,2.7271 2.5978,3.1772 0.1773,0.1328 0.0446,0.4012 0.2653,0.447 0.0936,-0.4891 0.6697,-0.1817 0.945,-0.1817 0.088,0.1359 0.2207,0.1817 0.1751,0.3145 -2.1051,0.5827 -2.8599,-1.7007 -3.8928,-2.9924 0.0489,-0.4021 -0.1328,-0.7646 -0.4438,-0.9394 -0.4013,0 -0.848,0 -0.9427,0.3563 0.4502,2.238 1.0721,4.6085 3.0414,6.2634 -2.5,-1.1235 -2.2768,-4.1192 -3.4427,-6.1308 -0.2686,-0.1326 -0.4891,0.1816 -0.5349,0.3561 0.0916,2.2833 0.3602,4.5151 1.3865,6.3966 -1.4344,-0.2686 -1.5222,-1.9204 -1.8365,-3.0413 -0.2198,-2.591 0.5894,-5.0977 -0.4891,-7.3747 0.0456,-2.7265 0.3563,-5.9463 -0.2686,-8.7222 0.227,-1.2047 0.1815,-2.5454 0.7577,-3.6209 1.0307,-1.3406 2.0639,-2.6366 3.3107,-3.7533l0.1385 0.0869 0.3565 -0.7154 4.2918 -4.2884c0.224,-1.8365 -0.4078,-4.0253 0.0871,-5.9466 0,-0.3142 0.538,-0.6698 0.088,-0.9394 -0.7579,0.3084 -0.8492,1.2055 -1.1146,1.8756 -0.1847,1.7428 0.3567,3.4425 -0.4923,4.9168 -0.6702,0.3142 -0.9388,-0.0455 -1.1202,-0.6707 0,-1.3865 -0.4022,-2.636 0,-3.883 0.0478,-0.3208 -0.0457,-0.5895 -0.2653,-0.8591 -0.9394,0.2273 -0.4927,1.3474 -0.7197,1.9693l0 4.9201c-1.0723,-4.1135 -0.7548,-8.4954 1.8364,-12.0715 1.0264,-5.4541 5.4126,-10.7721 10.5971,-13.0557 0.985,-0.3556 1.9635,-1.8356 3.0869,-0.8059 0.1751,0 0.3565,-0.0456 0.4439,-0.1781 0.0876,-0.4022 -0.3559,-0.3109 -0.4439,-0.583 0.6708,-0.6252 1.5614,0.495 2.591,0.0903 0.1783,-0.0455 0.0906,-0.2263 0.0906,-0.3589 -0.3168,-0.2696 -0.719,-0.2207 -1.0332,-0.5773 0.985,0.3077 2.1051,-0.0446 2.64,-0.7154 -0.4893,-0.3142 -0.9784,0.2204 -1.3795,-0.1817 0.2651,-0.5761 0.9782,-1.2047 1.561,-1.7004 0.5828,-1.2953 1.8749,-2.5454 1.3865,-4.0677 -0.7164,0.2237 -0.5839,1.1209 -0.8526,1.6548 -0.4469,0.583 -0.4891,1.5224 -1.3861,1.6549 -0.7581,0 -1.3865,-0.0446 -1.9693,0.6708 -0.7089,-0.583 -1.2495,0.7612 -2.0072,0.2686 -1.4354,-0.3107 -1.2537,-2.0983 -2.4138,-2.6813 -0.6277,0.6699 0.4438,2.144 -0.9385,2.3247 -0.6741,0.1335 -1.4321,0.4022 -1.7039,1.1179 0.0454,0.8515 0.0905,1.7876 -0.8001,2.1442l-0.3141 -0.0872c0.3141,-0.5837 0.8033,-1.2055 0.4891,-1.9691 -0.088,-0.4894 -0.6708,-0.7164 -1.0264,-0.9394 -1.8757,-0.2205 -2.9932,3.2162 -4.8298,1.0332 -0.3076,-5.1432 6.0377,-6.7534 7.6015,-10.9572 1.4287,-1.3407 3.0835,-2.8629 5.1405,-2.727 0.8519,0.5346 1.5672,1.4734 2.7721,1.2985z"/>
   <path class="fil4" d="M144.3879 95.6043c-3.1292,3.3936 -7.4688,4.7798 -11.9352,4.4656 -1.1202,-0.2196 -1.8816,-0.534 -2.9535,-0.9359 -1.1599,-0.5829 -1.5612,-1.8358 -2.1442,-2.8664 4.829,1.0306 9.7459,0.0455 13.6843,-2.3249 0.8902,-0.7578 1.8297,-1.4742 2.7684,-2.2322 0.4469,1.2048 1.4741,2.5945 0.5803,3.8938z"/>
   <path class="fil4" d="M146.1301 97.2103c0.3631,0.6252 0.3141,1.519 0.1816,2.2379 -1.4734,2.727 -4.6092,3.8378 -7.5111,4.3338 -3.1741,-0.0456 -7.3323,0.7154 -8.674,-3.1283l-0.087 -0.0947c0.8516,-0.0868 2.0116,0.5831 3.1706,0.4503 4.606,0.3598 9.0817,-1.5611 11.9837,-5.0039 0.7164,0.088 0.5348,0.8483 0.9361,1.2048z"/>
   <path class="fil4" d="M148.0122 101.7704c0.3558,1.3408 -0.7612,2.0988 -1.2993,3.0416 -3.2611,2.4584 -8.2715,4.1132 -12.1162,1.7876 -0.4893,-0.7155 -1.0721,-1.3858 -1.4735,-2.1468 2.1019,0.1807 4.8747,0.8971 7.1514,0.0936 2.0563,-0.4501 3.7991,-1.5221 5.4987,-2.8662 0.4503,-0.4891 0.8982,-1.2534 1.4777,-1.4283l0.7612 1.5186z"/>
   <path class="fil4" d="M149.4855 105.5695c-0.3565,2.3717 -3.0413,4.2952 -5.1854,4.917 -2.1442,0.6318 -5.0071,0.9841 -6.7916,-0.6219l-1.1176 -1.2985c1.7818,-0.0489 4.2886,0.1774 6.1214,-0.5768 1.4288,-0.3177 2.8599,-1.2986 4.2006,-2.0631 0.7645,-0.6708 1.1667,-1.6972 2.0573,-2.2319 0.4011,0.5346 0.3588,1.2924 0.7153,1.8751z"/>
   <path class="fil4" d="M150.4282 108.3423c0.356,1.0264 0.1785,2.3256 -0.586,3.0902 -1.7851,2.4098 -4.8232,3.1282 -7.7766,2.591 -1.2079,-0.3599 -1.9693,-1.0307 -2.7271,-2.015 4.0254,0.447 8.5792,-0.9392 10.4158,-4.8713 0.4469,0.1753 0.4021,0.8521 0.674,1.205z"/>
   <path class="fil4" d="M150.9589 114.5996c-1.6938,2.1926 -4.8289,2.4196 -7.2418,1.9693 -0.6674,-0.2684 -1.1175,-0.9361 -1.4735,-1.5191 3.3035,0.4927 6.9733,-0.6707 8.8546,-3.7988 0.4891,0.9775 0.5803,2.4126 -0.1394,3.3485z"/>
   <path class="fil4" d="M151.6363 118.1364c-1.7942,1.2536 -4.4731,1.6067 -6.5294,0.7584 -0.4926,-0.1814 -0.5383,-0.7584 -0.8068,-1.1178 2.64,0.0905 5.6814,-0.2238 7.4234,-2.7271 0.4019,0.8972 0.4891,2.2839 -0.0872,3.0865z"/>
   <path class="fil4" d="M151.361 121.4858c-1.3795,0.8515 -3.5694,0.7636 -5.1373,0.0935 -0.2686,-0.4077 -0.7156,-0.852 -0.5372,-1.299 2.1931,0.4024 4.4243,-0.1807 6.2186,-1.2985 -0.1815,0.6285 0.4014,2.015 -0.544,2.5041z"/>
   <path class="fil4" d="M151.1828 123.9052c-1.247,1.0231 -3.2162,0.8026 -4.5569,0.1774 -0.535,-0.4045 -0.3565,-0.761 -0.4022,-1.3888 1.5198,0.447 3.7578,0.8094 5.2311,-0.2693 0.0421,0.4468 -0.0457,1.0306 -0.272,1.4806z"/>
   <path class="fil4" d="M150.6937 125.1972c-0.2231,0.8971 -0.7122,1.6551 -1.2082,2.4161 -1.0231,0.1814 -2.2345,0.224 -2.9475,-0.6285 -0.2685,-0.6698 -0.6277,-1.1594 -0.2263,-1.8749 1.3862,0.4503 2.999,0.758 4.382,0.0873z"/>
   <path class="fil4" d="M147.7435 128.5527c0.3559,-0.2686 0.845,-0.1819 1.208,-0.0938 -1.9245,2.6392 -4.5637,4.6538 -7.5567,5.1911 -2.1018,-0.0447 -4.1582,0.7579 -5.5868,-0.9841 -0.2686,-0.6708 0.0391,-1.3407 0.4891,-1.8754 2.413,-1.7879 5.2758,-1.7879 8.003,-2.9088l0.0878 0.1359c-0.6219,1.2504 -2.008,2.3223 -3.1747,3.038l0 0.2696c1.2537,0.4012 2.0116,-0.9853 3.1747,-1.2113 0.1361,0.7643 0.9844,0.7643 1.4801,0.8515 0.0871,-0.0872 0.262,-0.1748 0.262,-0.3565 -0.4825,-0.3559 -1.0719,-0.5342 -1.2047,-1.205 0.2262,-0.6696 0.3141,-1.3862 0.9427,-1.881 0.4014,0.6283 1.159,0.8967 1.8755,1.0297z"/>
   <path class="fil4" d="M138.3088 42.3967l-0.5382 -0.5413 -0.2621 0.3599c0.1296,0.0879 0.0423,0.2686 0.0874,0.3566 -0.3143,-0.8036 -0.5831,-1.7431 -0.495,-2.5912 0.6274,0.7157 1.1201,1.4734 1.2079,2.4161z"/>
   <path class="fil4" d="M136.2094 43.2417c0.0878,0.1816 -0.5407,-0.3556 -0.6699,0.1816l0 0.4469c-0.4022,-0.4469 -0.8101,-1.0297 -0.5348,-1.6549 0.4893,0.0879 0.9784,0.5373 1.2047,1.0264z"/>
   <path class="fil5" d="M120.4691 81.4767c0.2685,2.0081 1.2537,3.7045 1.6548,5.6738 -0.8938,0.761 -2.0562,-0.4503 -2.6812,0.761 -1.4745,1.83 0.7155,4.8712 -1.568,6.3935 -1.2985,2.8183 -0.4013,6.3901 -0.3143,9.1204 -0.3075,2.0572 -0.2651,4.4243 0.4079,6.6209 -2.0595,-8.2334 -6.0402,-16.9943 -2.3282,-25.4903 0.9844,-1.606 2.549,-3.3546 4.5604,-3.3546l0.2687 0.2753z"/>
   <path class="fil5" d="M142.5997 41.2792c0.2693,0.8905 -0.8972,1.6938 -0.0874,2.2321 0.9844,-0.7131 0.9395,-2.5944 2.5067,-2.6824 0,1.0266 -0.6311,2.0117 -0.8092,3.0414l0.1781 0.2204c1.1203,-0.6672 1.1203,-2.1439 2.5068,-2.3712 0.0878,1.1667 -0.7646,2.1508 -1.1213,3.1771 0.7198,0.3145 0.9395,-0.6242 1.568,-0.9384 0.4021,-0.1335 0.7157,-0.4891 1.2079,-0.3566 -0.3564,0.9394 -1.6093,1.6096 -1.3861,2.5945 0.8938,0 1.2991,-1.4734 2.3222,-1.3864 -0.4467,0.9843 -1.8755,1.519 -1.4733,2.5909 0.9774,-0.1814 1.4733,-1.519 2.5945,-1.2924 -0.2696,0.9358 -2.1932,1.561 -1.5679,2.7268 0.673,-0.1807 1.1175,-1.033 1.9201,-0.8516 -0.67,0.5349 -2.0074,1.1179 -1.742,2.1443 0.9842,-0.2687 1.7908,-1.4735 2.8628,-1.0264 -0.1293,0.3109 -0.7188,0.45 -0.625,0.9394 0.0878,0.4884 0.625,0.3556 0.9393,0.6219 -0.7578,-0.4022 -1.568,-0.039 -2.1509,0.4044 0.1849,0.7158 1.03,0.0906 1.3931,0.5406 -0.2273,0.0879 -0.538,0 -0.6774,0.2653 0.2239,0.6708 1.0789,0.8459 1.7916,0.8459 0.7614,0.3632 1.117,1.1209 1.4769,1.791 -1.2503,0 -1.7874,-1.1202 -2.9541,-1.208 -0.2655,0 -0.4014,0.4021 -0.1749,0.5379 1.0271,1.0722 2.9964,1.7454 3.0379,3.4426 -1.1202,-0.5373 -2.0983,-1.4351 -3.4425,-1.4733 -0.3566,0.8903 0.8489,0.9359 1.2984,1.3853 0.6218,0.5839 1.1599,1.2057 1.2993,1.9693 -0.8102,-0.8059 -1.8824,-1.7942 -3.0482,-1.703 -0.1747,0.1359 -0.087,0.4045 -0.087,0.5829 0.1326,0.4012 0.5829,0.1749 0.8026,0.3566 1.9244,1.2527 1.6135,3.6242 2.465,5.4118 -1.8814,-0.6252 -1.7876,-2.9543 -3.5818,-3.6242 -0.6252,0.6252 0.6733,1.2081 0.8516,1.8366 0.8937,1.606 1.4766,3.8439 0.5796,5.5867 -2.5031,2.5031 -6.3025,3.6698 -7.0635,7.3329 -1.121,2.5454 -5.007,2.1052 -4.8713,5.3214 -0.6283,-0.5382 -0.2273,-1.4353 -0.0938,-2.0572 0.9844,-1.8779 3.6692,-1.1202 4.2072,-3.1772 -0.1358,-0.2197 -0.3631,-0.1781 -0.5829,-0.1781 -1.6558,1.3381 -4.6025,1.6582 -4.9166,4.2915 -0.0938,0.6776 0.3565,1.1658 0.4891,1.791 -0.8456,-0.4045 -1.4741,-1.4276 -1.6102,-2.325 0.0878,-1.2536 0.6772,-2.3256 1.8789,-2.9085 1.7428,-0.4469 3.8022,-0.8033 5.2756,-2.2322 0.0488,-0.1774 0,-0.3589 -0.1781,-0.4468 -1.1625,0.4021 -2.549,0.8033 -3.7991,0.3566 -1.3407,-0.5373 -2.8598,0.1325 -4.0255,0.8482 0,-0.7157 0.6701,-1.253 1.2047,-1.6997 2.2835,-0.8459 4.5147,0.7155 7.022,0.3142 0.2719,-0.2696 0.534,-0.6285 0.4469,-1.1178 0.4503,-0.1749 1.0299,-0.4012 1.2114,-0.8516 -0.4469,-0.2205 -1.2994,0 -1.8823,-0.1748 -1.5612,-0.5839 -1.4277,-2.7727 -3.3554,-2.8183l-1.6484 0c0.5763,-0.5372 1.471,-0.5372 2.2313,-0.3556 2.0571,0.7155 2.504,3.9765 5.1855,2.7718 0.3142,-0.2264 0.8101,-0.0939 1.0305,-0.5406l-0.3564 -0.3566c-0.8938,-0.1327 -1.9658,0.2205 -2.6849,-0.3077 -0.849,-1.0787 -0.936,-2.552 -2.232,-3.3555 0.6707,-0.0938 1.383,0.1784 2.0538,0.4894 1.2505,1.4318 2.636,3.1315 4.7418,2.4159 0.2654,-0.1814 0.6701,-0.1814 0.8906,-0.583l-0.088 -0.2651c-1.2918,-0.1816 -3.31,0.2651 -3.9808,-1.3897 -0.2262,-0.3142 0,-0.6219 0.0947,-0.9427 0.9328,0.9916 2.3672,2.2833 4.1135,1.7942 0.4467,-0.4012 1.4275,-0.2686 1.4733,-1.1169 -0.583,-0.7645 -1.0721,0.2198 -1.7006,0.1774 -0.7646,0.0423 -1.519,0 -2.0107,-0.5796 -0.9426,-2.4194 1.9683,-3.9384 1.655,-6.4838 0.9386,-4.9649 -0.2272,-11.0474 -4.9168,-14.1767 -1.2113,-0.6665 -2.5098,-1.2504 -3.8513,-1.6516 -0.3557,-0.719 0.6283,-1.208 0.9426,-1.7039 0.1295,-0.4884 0.4926,-0.9352 0.3988,-1.5604 0.3201,0.2231 0.4951,0.7155 0.6279,1.1202z"/>
   <path class="fil5" d="M142.869 71.7243c-1.8755,0.5339 -3.4432,-2.4584 -5.6812,-1.2537 0.8516,-0.9394 2.1507,-0.8516 3.2652,-0.6219 0.9875,0.3532 1.2984,1.7876 2.4161,1.8756z"/>
   <path class="fil5" d="M146.0431 83.037c-0.3143,1.3415 -1.0241,3.3076 -0.088,4.6482 0.4021,0.8971 1.2081,1.5223 1.8756,2.1508 -0.7091,1.2047 -1.3376,2.6781 -0.4015,3.9318 0.5831,1.0719 2.772,1.1176 1.4345,2.5909 -0.3622,0.8068 -0.3143,1.4768 -0.3143,2.4194 -2.4584,-5.4125 -4.7833,-11.271 -4.4756,-17.4832 0.5829,0.6219 1.2079,1.4735 1.9693,1.7421z"/>
   <path class="fil5" d="M151.4548 102.127c-0.1815,1.0721 -1.2115,2.0116 -0.583,3.1741 0.4892,0.8938 1.2984,1.7039 2.1442,2.1442 -0.4021,0.7643 -0.6219,1.6549 -0.9362,2.5096 -1.1589,-3.2192 -1.7427,-6.7075 -3.041,-9.8849 0.673,0.8525 1.6126,1.3864 2.416,2.057z"/>
   <path class="fil5" d="M153.7805 113.576l-0.9394 1.0236c-0.2272,-0.8903 -0.2687,-1.8752 -0.3599,-2.8148 0.3176,0.8069 1.0307,0.9396 1.2993,1.7912z"/>
   <path class="fil1" d="M119.4939 79.9121c-0.2878,0.087 0.3309,-0.4469 0.3722,-0.7778 0.0391,-0.3332 0.2041,0.742 0.2041,0.742 0,0 -0.2877,-0.0387 -0.5763,0.0357z"/>
   <polygon class="fil4" points="136.4789,71.9962 136.8313,71.7243 137.1009,71.7243 "/>
   <path class="fil5" d="M141.7513 79.0572c0.3533,0.6252 0.1395,1.4278 0.2205,2.1442 -0.2693,0.4012 -0.6639,0 -0.9325,0 -0.5415,-0.3565 -0.8526,-0.9784 -0.5863,-1.6069 0.2266,-0.3142 0.3166,-0.8033 0.6733,-0.9844 0.4468,-0.1814 0.4011,0.4015 0.6251,0.447z"/>
   <path class="fil1" d="M138.7101 48.1651c0.4926,-0.1817 1.0754,-0.0489 1.4766,0.2653 0.2273,0.4924 -0.3591,0.538 -0.5339,0.7578 -1.8822,0.4502 -3.3556,2.4194 -5.4997,1.3864 0.0872,-0.4926 0.4893,-0.8938 0.7157,-1.3864 0.3565,-0.4891 0.8456,-0.9361 1.4284,-1.1169 0.8037,0.0448 1.7008,1.2047 2.413,0.0938z"/>
   <path class="fil4" d="M151.9051 104.3651c-0.3625,-1.2113 2.9052,-2.9536 0,-3.1741 -0.544,-0.3632 -1.2113,-0.7188 -1.4769,-1.3898 1.7421,-0.4012 3.5272,-0.6672 5.4086,-0.8482 0.2687,0.1809 0.6708,0.0938 0.8906,0.4014 0.5378,0.2686 0.402,1.0722 0.3142,1.5679 -0.4895,0.4891 -1.03,1.1169 -1.5192,1.3862 0,0.1807 -0.3558,0.447 0,0.5832 -1.0811,0.6573 -3.2643,1.3862 -3.6174,1.4734z"/>
   <path class="fil5" d="M158.3408 76.647c0.8516,0.8423 1.4279,1.9631 2.5943,2.4972 0.2654,-0.0387 0.4014,-0.3142 0.4894,-0.534 1.2103,1.3856 1.6995,3.3067 2.4158,5.0107 0.181,0 0.4015,0.0446 0.5374,-0.1817 0.4892,1.292 0.1782,2.4584 0.262,3.9775 0.897,1.4767 0.3175,3.4913 -0.1749,4.9647 -0.3135,1.2537 -1.8299,1.519 -2.1433,2.7727 0.4469,0.5373 0.8025,0 1.2917,-0.0945 1.072,-0.1741 1.8823,0.2273 2.6401,0.7645 -0.3567,1.1176 -1.072,2.3257 -2.232,2.8603 -0.2687,0.0938 -0.3624,0.3625 -0.2687,0.6701 0.8871,0.6773 2.1897,0.4014 2.9476,1.4734 0.9394,0.9851 1.2949,2.1964 1.791,3.3556 -0.8938,0.45 0.0454,1.2537 -0.088,1.9244 -0.1384,1.0294 1.247,2.3214 0.088,3.1741 -0.3175,1.1655 -0.7191,2.2834 -0.6708,3.5302 -0.9844,1.1658 -1.2985,2.5969 -2.772,3.2676 -0.8066,0.4892 -1.5679,1.3408 -2.1439,2.0566 -0.4503,-0.8974 0.4011,-1.8749 0.3523,-2.9081 0.6707,-2.1475 2.0114,-4.2461 1.1209,-6.7499 -0.583,-2.3259 -2.5521,-4.1133 -4.8288,-4.6964 -2.2379,-0.2684 -4.5636,-0.2684 -6.5329,0.3141 -0.3567,0.0873 -0.7578,0.1817 -1.111,0.2689 1.7394,-0.6442 2.5097,-0.9945 3.6174,-1.4734 0.9852,-0.6776 2.4162,-1.2995 2.6368,-2.64 -0.1326,-0.541 -0.1783,-1.1659 -0.4893,-1.6551 -1.1178,-1.0299 -2.3705,-0.3601 -3.7146,-0.5829l-1.9632 0.2228c3.5304,-2.367 6.2159,-6.2565 6.886,-10.5514 0.4435,-3.6176 -0.3624,-7.5079 -0.7189,-11.0382l0.1815 0z"/>
   <path class="fil1" d="M159.9958 79.4128c1.655,4.9169 1.072,10.5557 -0.9395,15.0704 -0.1781,0.3566 -0.5797,0.8036 -0.984,0.4894 -0.3143,-0.7157 0.3555,-1.4735 0.7122,-2.1475 1.3441,-3.6175 2.2379,-7.7797 1.0298,-11.7116 -0.2207,-0.6285 -0.4015,-1.2917 -0.1783,-1.9693 0.1328,0 0.2663,0.1817 0.3599,0.2686z"/>
   <path class="fil1" d="M163.1697 86.5677l0 0.3142 -0.2651 0 0 -0.4894c0.1258,0 0.2651,0.039 0.2651,0.1751z"/>
   <path class="fil1" d="M162.0521 93.097c-0.6699,0.8457 -0.9843,2.2377 -2.2378,2.4128 -0.5339,-1.1591 1.1658,-1.6551 1.3863,-2.7687 0.984,-1.5256 1.2079,-3.3554 1.6093,-5.1437l0.2695 -0.1807c0.0904,1.969 -0.4445,3.8926 -1.0272,5.6803z"/>
   <path class="fil1" d="M166.0782 103.5136c0.9842,1.6126 1.4735,3.799 0.9842,5.6802 -0.3622,-0.4891 -0.0512,-0.9394 -0.2752,-1.4735 -0.4012,-2.2833 -1.4735,-4.4344 -3.6175,-5.95 -0.0456,-0.314 0.136,-0.7155 0.583,-0.5794 0.8871,0.6219 1.6484,1.4318 2.3256,2.3226z"/>
   <path class="fil1" d="M165.6702 110.6679c-0.402,2.0565 -0.9325,4.2943 -2.057,6.1698 -0.1327,-0.0872 -0.1816,-0.3142 -0.1816,-0.5763 0.1816,-0.4536 0.4537,-0.8971 0.496,-1.48 0.4501,-1.61 1.0297,-3.1748 1.2112,-4.9168 -0.0904,-2.0149 -1.0753,-3.8449 -2.504,-5.4118 -0.0937,-0.2238 0,-0.4891 0.2697,-0.538 2.2343,1.4798 3.0859,4.3397 2.7657,6.7532z"/>
   <path class="fil2" d="M172.8248 127.3414c0.3593,2.9541 -2.5005,5.5933 -4.6511,7.1612l-1.6518 1.0233c-0.8938,-2.0084 -1.655,-4.292 -2.2378,-6.5231 1.7942,-1.5223 4.071,-1.9235 6.3513,-2.5071 0.8066,0.4019 1.7004,-0.1328 2.1895,0.8457z"/>
   <path class="fil0 str2" d="M172.8248 127.3414c0.3593,2.9541 -2.5005,5.5933 -4.6511,7.1612"/>
   <line class="fil0 str2" x1="168.1737" y1="134.5026" x2="166.5219" y2= "135.5259" />
   <path class="fil0 str2" d="M166.5219 135.5259c-0.8938,-2.0084 -1.655,-4.292 -2.2378,-6.5231 1.7942,-1.5223 4.071,-1.9235 6.3513,-2.5066 0.8066,0.4014 1.7004,-0.1333 2.1895,0.8452"/>
   <path class="fil2" d="M178.2368 131.4615c0.9844,4.2005 3.7569,7.9569 2.9923,12.738 -2.9468,6.3061 -9.8783,9.2107 -15.6466,11.8964 -0.6698,0.1748 -1.2984,0.4435 -2.0563,0.4435 -1.7005,-4.6024 -2.9932,-9.3444 -4.2458,-14.1278 0.5828,-0.3074 1.5603,-0.2202 2.2344,-0.6707 6.125,-2.0561 13.1917,-5.2302 15.7826,-11.9834 0.4437,0.3173 0.6285,1.1209 0.9394,1.704z"/>
   <path class="fil0 str2" d="M178.2368 131.4615c0.9844,4.2005 3.7569,7.9569 2.9923,12.738 -2.9468,6.3061 -9.8783,9.2107 -15.6466,11.8964 -0.6698,0.1748 -1.2984,0.4435 -2.0563,0.4435 -1.7005,-4.6024 -2.9932,-9.3444 -4.2458,-14.1278 0.5828,-0.3074 1.5603,-0.2202 2.2344,-0.6707 6.125,-2.0561 13.1917,-5.2302 15.7826,-11.9834 0.4437,0.3173 0.6285,1.1209 0.9394,1.704z"/>
   <path class="fil2" d="M153.6926 141.7408c-0.0937,0.4021 -0.5405,0.7579 -0.8515,0.9394 -0.7157,0.4469 -1.3863,0.8973 -2.1474,1.2049 0.4468,-0.7091 1.8332,-1.781 2.9988,-2.1444z"/>
   <path class="fil0 str1" d="M153.6926 141.7408c-0.0937,0.4021 -0.5405,0.7579 -0.8515,0.9394 -0.7157,0.4469 -1.3863,0.8973 -2.1474,1.2049 0.4468,-0.7091 1.8332,-1.781 2.9988,-2.1444z"/>
   <path class="fil2" d="M40.1685 151.7165c7.5081,2.1895 14.9346,4.4665 22.7141,5.9404 6.1666,1.6551 13.007,2.1501 19.7183,2.8209 9.7878,1.2537 19.714,-0.2686 29.0129,-1.2113 7.2461,-1.0264 14.2605,-2.6815 21.153,-4.6447 8.139,-2.2836 16.4045,-4.2038 23.5135,-8.9425l1.792 -2.0596 0.3555 0.3592c1.3409,5.3181 3.0869,10.462 4.9168,15.5598 0.4501,1.8297 0.8972,4.2492 -0.7098,5.5865 -12.2522,6.9732 -25.622,10.2382 -39.4812,13.2796 -2.8208,0.3142 -5.8585,0.8971 -8.6344,1.2985 -10.0535,1.2502 -21.1889,1.5157 -31.5621,1.2502 -3.576,-0.1394 -6.8402,-0.4466 -10.3286,-0.8481 -5.1398,-0.224 -9.9697,-1.2992 -14.8923,-2.1508 -12.9194,-2.7661 -25.9302,-6.1181 -37.3758,-12.5598 -1.4318,-1.0273 -1.7428,-2.5463 -1.4741,-4.1133 1.3413,-4.9168 3.2618,-9.5648 4.6478,-14.4875 0.3145,-1.1592 0.5373,-2.3259 1.1202,-3.349 4.2921,4.6932 10.0146,6.3024 15.5141,8.2718z"/>
   <path class="fil0 str2" d="M40.1685 151.7165c7.5081,2.1895 14.9346,4.4665 22.7141,5.9404 6.1666,1.6551 13.007,2.1501 19.7183,2.8209 9.7878,1.2537 19.714,-0.2686 29.0129,-1.2113 7.2461,-1.0264 14.2613,-2.6815 21.153,-4.6447 8.139,-2.2836 16.4045,-4.2038 23.5135,-8.9425"/>
   <polyline class="fil0 str2" points="156.2803,145.6792 158.0723,143.6196 158.4278,143.9788 "/>
   <path class="fil0 str2" d="M158.4278 143.9788c1.3409,5.3188 3.0869,10.462 4.9168,15.5598 0.4501,1.8297 0.8972,4.2492 -0.7098,5.5865 -12.2522,6.9739 -25.622,10.2382 -39.4812,13.2796 -2.8208,0.3142 -5.8585,0.8971 -8.6344,1.2985 -10.0535,1.2502 -21.1879,1.5164 -31.5621,1.2502 -3.576,-0.1394 -6.8402,-0.4466 -10.3286,-0.8481 -5.1398,-0.224 -9.9697,-1.2992 -14.8923,-2.1508 -12.9194,-2.7661 -25.9302,-6.1181 -37.3758,-12.5598 -1.4318,-1.0273 -1.7428,-2.5463 -1.4741,-4.1133 1.3413,-4.9168 3.2618,-9.5648 4.6478,-14.4875 0.3145,-1.1592 0.5373,-2.3259 1.1202,-3.349 4.2921,4.6932 10.0153,6.3024 15.5141,8.2718"/>
   <path class="fil2" d="M143.3639 143.8852c-1.6126,0.946 -3.3096,1.3407 -5.1429,1.2113 -0.1816,-0.5342 0.6674,-0.3598 0.9361,-0.7159 1.4343,-0.4019 2.64,-0.4019 4.2068,-0.4955z"/>
   <path class="fil0 str1" d="M143.3639 143.8852c-1.6126,0.946 -3.3096,1.3407 -5.1429,1.2113 -0.1816,-0.5342 0.6674,-0.3591 0.9361,-0.7159 1.435,-0.4019 2.64,-0.4019 4.2068,-0.4955z"/>
   <path class="fil2" d="M137.1878 149.1227c-0.4436,0.2233 -1.4286,0.5372 -2.319,0.5372 -0.2264,-0.2683 -0.1816,-0.8099 -0.1816,-1.1208l2.5007 0.5836z"/>
   <path class="fil0 str1" d="M137.1878 149.1227c-0.4436,0.2233 -1.4286,0.5372 -2.319,0.5372 -0.2264,-0.2683 -0.1816,-0.8099 -0.1816,-1.1208"/>
   <line class="fil0 str1" x1="134.6871" y1="148.5392" x2="137.1878" y2= "149.1227" />
   <path class="fil5" d="M175.7361 125.0155c1.6492,3.7189 -0.6732,7.2491 -3.2675,9.7524 -3.3554,2.9508 -7.4201,4.6505 -11.5334,5.9889l-1.969 0.2686c0.1781,-0.4436 -0.3567,-0.6708 -0.1816,-1.1178 5.7715,-1.8747 11.7631,-4.3329 15.0704,-10.2373 0.4012,-0.9851 0.4949,-2.1898 0,-3.1746 -1.03,-1.3858 -2.5041,-0.9844 -3.9775,-0.9354 -2.3256,0.6665 -4.6514,1.2495 -6.6205,2.7238l-0.2655 0.6251c0.894,2.3706 1.5646,4.7867 2.3224,7.1993 -0.4469,0.3144 -1.0719,0.5382 -1.5611,0.8035 -0.9843,-1.4287 -1.166,-3.3946 -1.9692,-5.004 -0.087,-1.7005 -2.5031,-3.8902 -0.2687,-5.143 3.3522,-1.7496 7.022,-3.0869 10.8661,-3.4434 1.2044,0.0455 2.5461,0.5346 3.3553,1.6938z"/>
   <path class="fil5" d="M41.5551 145.9479c1.6068,0.3568 3.6632,0.6639 4.8675,-0.6276 0.3636,-0.9396 -0.7578,-1.3862 -1.2468,-1.7886 -2.5035,-1.208 -5.6769,-1.0719 -8.5401,-1.208 -0.4471,-0.3589 -0.8947,-0.6276 -1.299,-1.1167 3.4912,-0.4023 7.2032,0.2196 10.5098,0.9359 1.072,0.758 2.8147,0.9843 3.0868,2.5938 0.2235,1.0306 -0.314,1.9697 -1.124,2.3289 -2.5911,1.0722 -4.8225,0.4435 -7.5528,0.0879 -2.6824,-0.4926 -4.9593,-2.0149 -6.9765,-4.1591 -1.5646,-1.5191 -3.2618,-3.4426 -5.4058,-2.7271 -0.4016,0.4014 -0.4537,1.072 -0.2688,1.6095l0.4927 0.8034c3.5302,2.7729 7.5524,4.2952 11.627,5.6813 1.4739,0.4469 3.08,1.1592 4.7352,1.6061 9.9694,2.6401 19.4069,5.7261 30.0494,6.798 4.421,0.758 9.5642,0.9396 14.0341,1.3829l0.1817 -0.1748c13.1459,0.0388 24.9031,-1.4765 37.1487,-4.4757 2.64,-0.7096 4.9233,-1.4285 7.6015,-2.057 5.9051,-1.4734 11.8059,-3.5297 17.3961,-6.1207 1.6551,-1.2537 4.8777,-1.7886 4.3886,-4.5636 -0.3632,-0.7165 -1.3051,-0.5804 -1.969,-0.4894 -3.6242,1.6095 -5.7261,6.2643 -9.7525,6.7983 -3.2161,0.3568 -7.109,1.966 -9.4794,-1.0299 -0.039,-0.7643 -0.039,-1.5679 0.45,-2.1506 2.1436,-2.0506 5.1432,-2.0956 8.0028,-2.5909l5.1432 0c-0.8547,2.2833 -3.488,0.7152 -4.9681,1.299 -1.9625,0.3077 -4.246,0.3556 -5.8562,1.7874 -0.1781,0.3561 -0.4884,0.8452 -0.0871,1.208 2.1922,1.6518 5.1853,0.1786 7.4655,-0.5827 4.0254,-2.0572 6.9731,-7.78 12.249,-5.9433 0.6707,0.2621 1.1209,1.0264 1.2112,1.6939 -0.0455,1.703 -1.2112,3.1774 -2.5976,4.0745 -3.0345,2.3637 -6.61,3.6632 -10.147,5.0495 -12.1163,4.0712 -25.0393,7.1088 -38.137,8.8094 -3.8026,0.1777 -7.6472,0.758 -11.5401,0.9361 -9.2049,0.0873 -18.28,-0.6219 -27.2711,-2.2353 -0.7153,0.1783 -1.3861,-0.3109 -2.1441,-0.2686 -11.7142,-2.64 -23.3842,-5.1854 -34.2924,-10.0566 -2.5522,-1.477 -6.8404,-3.2676 -6.2643,-6.9765 0.538,-1.0264 1.5224,-1.4344 2.598,-1.6551 5.5418,0.1786 8.4016,6.5719 13.6808,7.5138z"/>
   <path class="fil2" d="M18.6631 128.8213l-2.2351 6.4356c-2.7718,-1.3374 -5.3665,-3.7052 -6.4839,-6.7042 -0.0481,-0.6219 -0.0481,-1.2986 0.3563,-1.7877 1.7456,-0.8525 3.6699,0 5.318,0.4015 1.0755,0.4468 2.1479,1.0719 3.0448,1.6548z"/>
   <line class="fil0 str2" x1="18.6631" y1="128.8213" x2="16.4286" y2= "135.257" />
   <path class="fil0 str2" d="M16.4286 135.257c-2.7725,-1.3374 -5.3672,-3.7052 -6.4846,-6.7042 -0.0481,-0.6219 -0.0481,-1.2986 0.3563,-1.7877 1.7456,-0.8525 3.6699,0 5.318,0.4015 1.0755,0.4468 2.1479,1.0719 3.0448,1.6548"/>
   <path class="fil2" d="M7.7932 133.6501c4.0261,4.9627 10.0208,6.7044 15.6532,8.5866 -0.1323,1.6485 -0.8972,3.2611 -1.2528,4.9168 -0.8035,2.6392 -1.6525,5.2269 -2.504,7.8247 -0.534,0.4012 0,2.0112 -1.2047,1.3862 -5.3247,-1.7428 -10.3777,-4.295 -14.5779,-8.5408 -1.8332,-2.0563 -3.534,-4.6026 -2.5488,-7.3815 0.9419,-3.5302 2.5911,-6.7921 3.6208,-10.3282l0.401 -0.7101c0.5386,1.5193 1.3867,2.9933 2.4131,4.2461z"/>
   <path class="fil0 str2" d="M7.7932 133.6501c4.0261,4.9627 10.0208,6.7044 15.6532,8.5866 -0.1323,1.6485 -0.8972,3.2611 -1.2528,4.9168 -0.8035,2.6392 -1.6525,5.2269 -2.504,7.8247 -0.534,0.4012 0,2.0112 -1.2047,1.3862 -5.3247,-1.7428 -10.3777,-4.295 -14.5779,-8.5408 -1.8332,-2.0563 -3.534,-4.6026 -2.5488,-7.3815 0.9419,-3.5302 2.5911,-6.7921 3.6208,-10.3282"/>
   <line class="fil0 str2" x1="4.9791" y1="130.1141" x2="5.3801" y2= "129.404" />
   <path class="fil0 str2" d="M5.3801 129.404c0.5386,1.5193 1.3867,2.9933 2.4131,4.2461"/>
   <path class="fil2" d="M32.256 143.798c-1.1198,-0.4438 -2.5521,-1.2047 -2.9536,-2.2353 1.1662,0.3598 2.102,1.3862 2.9536,2.2353z"/>
   <path class="fil0 str1" d="M32.256 143.798c-1.1198,-0.4438 -2.5521,-1.2047 -2.9536,-2.2353 1.1662,0.3598 2.102,1.3862 2.9536,2.2353z"/>
   <path class="fil2" d="M44.7286 144.7368c0,0.5347 -0.6698,0.1332 -0.9391,0.3598 -1.2496,-0.2653 -2.9046,-0.4014 -3.9836,-1.2985 1.7492,0.0872 3.4952,0.0872 4.9227,0.9387z"/>
   <path class="fil0 str1" d="M44.7286 144.7375c0,0.534 -0.6698,0.1325 -0.9384,0.3591 -1.2503,-0.2653 -2.9053,-0.4014 -3.9843,-1.2985 1.7492,0.0872 3.4952,0.0872 4.9227,0.9394z"/>
   <path class="fil2" d="M48.353 148.4489c-0.1807,0.4011 0,1.0294 -0.4502,1.211l-2.1468 -0.6282c0.8549,-0.2689 1.7457,-0.3566 2.597,-0.5829z"/>
   <path class="fil0 str1" d="M48.353 148.4489c-0.1807,0.4011 0,1.0294 -0.4502,1.211"/>
   <line class="fil0 str1" x1="47.9027" y1="149.6599" x2="45.7559" y2= "149.0317" />
   <path class="fil0 str1" d="M45.7559 149.0317c0.8549,-0.2689 1.7457,-0.3561 2.597,-0.5829"/>
   <path class="fil5" d="M18.3032 125.1099c1.3865,0.7155 2.9543,1.0722 4.1137,2.3249 -0.3145,1.9691 -1.2953,3.6209 -1.7878,5.4998 -0.6253,1.2045 -0.6708,2.6401 -1.3863,3.8026 -0.5798,-0.0905 -1.1592,-0.4959 -1.5648,-0.7613 0.136,-1.1204 0.6707,-2.4128 0.894,-3.5307 0.4927,-1.1199 1.0307,-2.2377 1.299,-3.4425 0.2656,-0.9391 -0.8063,-1.2985 -1.3861,-1.6614 -2.4196,-1.3799 -5.4119,-2.3259 -8.1846,-2.0507 -0.6707,0.1781 -1.3406,0.758 -1.5644,1.3863 -0.5339,4.1137 3.3522,6.9732 6.3063,9.1173 2.8143,1.7006 5.7652,2.9052 8.8479,3.9384 0.2271,0.3077 0,0.8492 -0.1742,1.2048 -3.6248,-0.7155 -7.0221,-2.1019 -10.1543,-4.0254 -3.932,-2.1898 -7.6429,-6.2154 -6.9733,-10.7724 0.2694,-1.4765 1.7006,-2.7303 3.1741,-2.9987 2.9965,-0.0425 5.9018,1.0296 8.5408,1.969z"/>
   <path class="fil1" d="M24.7289 161.961c0.7846,0.2175 1.1659,0.2689 1.5,-0.5504l2.3836 -5.8976c-0.3531,-1.1368 -0.5378,-1.257 -0.6962,-1.3219l0.1226 -0.3109 2.6235 1.0624 2.1706 7.0542 0.0255 0.0068 1.526 -3.7668c0.2978,-0.7488 0.314,-1.2181 -0.661,-1.7007l0.1226 -0.3041 2.6756 1.0752 -0.1232 0.3109c-0.9419,-0.2496 -1.1336,0.0092 -1.3767,0.6085l-2.9567 7.3231 -0.3497 -0.1463 -2.8117 -8.9774 -0.0256 -0.0101 -2.0084 4.978c-0.3623,0.8971 -0.1972,1.2379 0.6835,1.7141l-0.123 0.3072 -2.8237 -1.1399 0.1223 -0.3142z"/>
   <path class="fil1" d="M36.6255 157.3909l7.3621 2.3905 -0.8327 2.5687 -0.3172 -0.1036c0.2949,-1.9143 -0.5049,-2.5198 -2.2282,-3.0836 -0.7062,-0.2264 -0.9459,-0.2461 -1.1275,0.2945l-0.9651 2.964c1.2212,0.4078 1.9856,0.2877 2.6913,-1.2313l0.3309 0.1071 -1.4031 4.3137 -0.3331 -0.1066c0.3655,-1.6452 -0.1618,-2.2377 -1.4254,-2.649l-0.9973 3.0869c-0.1882,0.5596 0.0099,0.7934 0.8323,1.0619 1.2538,0.4047 2.6624,0.4992 4.0934,-1.1655l0.3568 0.1125 -1.3733 2.4909 -7.4622 -2.4227 0.1037 -0.3201c0.7514,0.1585 1.159,0.246 1.4186,-0.5474l2.005 -6.1702c0.2717,-0.845 -0.2529,-1.0464 -0.8328,-1.2729l0.1037 -0.3175z"/>
   <path class="fil1" d="M56.7677 163.2206c-0.4634,-0.0679 -0.8223,0.1781 -1.0975,0.6285l-4.4277 7.2681 -0.35 -0.0903 -0.7869 -6.6204 -0.0882 -0.016 -3.7955 5.5644 -0.3655 -0.088 -0.953 -8.5086c-0.0775,-0.6799 -0.1807,-0.835 -0.7053,-1.0398l0.0712 -0.3299 3.8438 0.8837 -0.0737 0.3309c-0.4801,-0.0715 -0.8522,-0.1262 -0.9661,0.3565 -0.0323,0.1392 -0.0255,0.2943 -0.0057,0.4527l0.4659 5.0785 0.0258 0.0033 2.4517 -3.6333 -0.1716 -1.3606c-0.1007,-0.3243 -0.2131,-0.5051 -0.8325,-0.674l0.0712 -0.3232 4.0811 0.9359 -0.0773 0.3299c-0.5703,-0.0938 -0.9524,-0.165 -1.056,0.2788 -0.0356,0.1558 0,0.4957 0.0165,0.761l0.398 4.6703 0.0224 0.0102 2.4747 -4.1074c0.0749,-0.1229 0.1619,-0.2522 0.2233,-0.5309 0.1237,-0.5347 -0.33,-0.6538 -0.7735,-0.7834l0.0778 -0.3244 2.3804 0.5507 -0.0781 0.3267z"/>
   <path class="fil1" d="M63.8938 171.4674c-1.1401,0.9424 -2.3068,1.6126 -4.0008,1.3439 -3.0896,-0.4892 -4.4142,-2.9278 -4.0223,-5.4027 0.4272,-2.688 2.6626,-4.4531 5.4441,-4.0132 1.1891,0.1915 2.1122,0.9984 2.4518,1.0563 0.3565,0.0547 0.5217,-0.2005 0.7065,-0.5148l0.3624 0.055 -0.495 3.1024 -0.3309 -0.0547c-0.2817,-1.2215 -1.1498,-2.9478 -2.6586,-3.1906 -1.9336,-0.3042 -2.7729,1.6391 -3.1285,3.8741 -0.1236,0.7997 -0.2427,2.0824 0.1069,3.0055 0.4079,1.0462 1.4243,1.4086 1.8356,1.4739 1.0307,0.1653 2.0861,-0.0778 3.3821,-1.1343l0.3468 0.3991z"/>
   <path class="fil1" d="M72.3176 174.3078l-4.314 -0.538 0.0414 -0.33c0.8356,0.0357 1.0787,0.0513 1.1311,-0.3856 0.0388,-0.3563 -0.2631,-1.3964 -0.3991,-1.8464l-2.9922 -0.3657c-0.4923,0.9131 -0.771,1.4285 -0.8,1.6449 -0.0611,0.5059 0.573,0.6219 1.0264,0.7l-0.048 0.3365 -2.7014 -0.3302 0.0422 -0.3363c0.738,-0.0134 0.9742,-0.4412 1.4958,-1.3895l3.855 -6.9377 0.3721 0.0449 2.1052 7.3718c0.4246,1.4933 0.583,1.9723 1.2247,2.0239l-0.0391 0.3375zm-3.673 -3.6472l0 0 -0.9486 -3.3947 -1.6492 3.0801 2.5978 0.3145z"/>
   <path class="fil1" d="M78.9118 168.3126c-0.1751,-0.9552 -0.8713,-2.5454 -2.4484,-2.6591 -0.7032,-0.0489 -1.4642,0.3041 -1.5258,1.1688 -0.0522,0.7255 0.1849,1.0365 1.2729,1.6817l1.8942 1.1103c0.4406,0.2594 1.4032,1.1044 1.3027,2.5687 -0.0844,1.1688 -1.0529,2.7303 -3.518,2.5618 -1.2724,-0.0935 -1.8389,-0.5894 -2.2568,-0.6186 -0.2785,-0.0197 -0.3667,0.2175 -0.4311,0.4273l-0.3889 -0.0258 0.2338 -3.3034 0.3847 0.0259c0.1749,1.3697 0.8458,2.9308 2.5429,3.0578 1.6063,0.1062 1.7686,-1.208 1.7778,-1.383 0.0656,-0.8971 -0.5406,-1.2633 -1.383,-1.7364l-0.8648 -0.4889c-2.2149,-1.2628 -2.1345,-2.4131 -2.0919,-3.0281 0.0611,-0.8132 0.6026,-2.6075 3.1416,-2.4261 1.0719,0.0713 1.6716,0.5573 2.057,0.583 0.3109,0.0256 0.388,-0.1717 0.4757,-0.4248l0.4016 0.0325 -0.2008 2.9022 -0.3756 -0.0256z"/>
   <path class="fil1" d="M86.2671 175.0493l-4.7842 -0.1719 0.0102 -0.3332c0.9848,-0.0489 1.3049,-0.0614 1.3436,-1.1926l0.2498 -7.0599c-0.9396,0.0191 -2.3259,0.0414 -2.6722,2.1764l-0.385 -0.0165 0.1327 -2.6914 8.0485 0.2854 -0.0678 2.6946 -0.3923 -0.0164c-0.1907,-2.1537 -1.5702,-2.2737 -2.494,-2.3551l-0.2495 7.0679c-0.038,1.1331 0.2851,1.1721 1.2736,1.2724l-0.0134 0.3401z"/>
   <path class="fil1" d="M96.3428 175.137l-7.7534 0 0 -0.3375c0.7547,-0.0903 1.1559,-0.1323 1.1559,-0.9451l0 -6.497c0,-0.8849 -0.5504,-0.9105 -1.1559,-0.9462l0 -0.3399 4.6797 0 0 0.3399c-0.9362,0.0357 -1.3507,0.0521 -1.3507,1.2311l0 6.3249c0,0.6417 0.2953,0.7519 1.1923,0.7519 2.0241,0 2.7787,-1.1143 3.3913,-2.6235l0.3913 0 -0.5504 3.0414z"/>
   <path class="fil1" d="M96.6214 166.0487l7.7249 -0.4021 0.1454 2.6916 -0.3368 0.02c-0.4046,-1.8915 -1.3798,-2.1733 -3.1838,-2.0829 -0.738,0.0421 -0.9742,0.11 -0.9486,0.6866l0.165 3.1024c1.2893,-0.0514 1.9535,-0.4337 2.0662,-2.1084l0.3467 -0.0158 0.2363 4.5246 -0.3466 0.0157c-0.2462,-1.664 -0.9518,-2.0306 -2.2769,-1.9557l0.1683 3.2352c0.0325,0.5927 0.2952,0.742 1.1601,0.6898 1.315,-0.0615 2.6658,-0.4825 3.4034,-2.5522l0.3756 -0.019 -0.3913 2.814 -7.8344 0.4089 -0.0199 -0.3306c0.7611,-0.1229 1.1758,-0.185 1.1335,-1.0168l-0.3465 -6.4779c-0.0416,-0.8873 -0.6087,-0.8807 -1.2273,-0.8908l-0.0131 -0.3366z"/>
   <path class="fil1" d="M116.7993 164.8465c-0.7224,0.1817 -1.0166,0.3632 -0.9228,1.2438l0.4467 4.2557c0.0848,0.7846 0.0224,1.9952 -0.4725,2.65 -0.5928,0.7936 -1.7264,1.1725 -2.5296,1.2463 -0.5831,0.0654 -1.8465,0.1138 -2.7951,-0.5506 -0.6218,-0.4469 -1.0207,-0.8739 -1.1759,-2.3125l-0.4699 -4.4597c-0.1161,-1.1237 -0.4625,-1.1136 -1.2205,-1.1136l-0.0355 -0.3274 4.5111 -0.4761 0.0357 0.3299c-0.877,0.1328 -1.2894,0.1916 -1.1657,1.3674l0.4693 4.4532c0.0778,0.761 0.272,2.5977 2.1896,2.3963 2.3515,-0.2422 2.1666,-2.2892 2.073,-3.1383l-0.4279 -4.0746c-0.0839,-0.8124 -0.2878,-1.2468 -1.4445,-1.1848l-0.0357 -0.3306 2.9344 -0.3012 0.0358 0.3267z"/>
   <path class="fil1" d="M118.1434 173.0701c0.7777,-0.2233 1.1333,-0.3723 1.0008,-1.2471l-1.0008 -6.2801c-0.8873,-0.7967 -1.1011,-0.8026 -1.2728,-0.7702l-0.0546 -0.3375 2.7983 -0.4433 5.4929 4.9323 0.0191 -0.0032 -0.6319 -4.0156c-0.1226,-0.7934 -0.3556,-1.2047 -1.4376,-1.1178l-0.0515 -0.33 2.8433 -0.4503 0.0522 0.3302c-0.9326,0.2684 -0.9619,0.5894 -0.8615,1.2212l1.2337 7.8054 -0.3722 0.0547 -7.0287 -6.241 -0.0256 0.0068 0.839 5.2918c0.1486,0.9591 0.4693,1.1664 1.4635,1.114l0.0523 0.3342 -3.0056 0.4727 -0.0522 -0.3274z"/>
   <path class="fil1" d="M132.3815 170.7642l-4.5929 0.9817 -0.0744 -0.3309c0.6963,-0.2165 1.1988,-0.3821 1.0272,-1.1914l-1.3507 -6.348c-0.1849,-0.8682 -0.81,-0.7646 -1.4218,-0.6774l-0.0681 -0.3233 4.5926 -0.9785 0.068 0.3267c-0.6094,0.1558 -1.2371,0.3051 -1.0464,1.1989l1.3507 6.348c0.1781,0.8424 0.7098,0.7679 1.441,0.6642l0.0748 0.33z"/>
   <path class="fil1" d="M139.2797 168.9666l-4.6282 1.2403 -0.0806 -0.3234c0.923,-0.3342 1.2271,-0.4443 0.9361,-1.5289l-1.8333 -6.8305c-0.8906,0.2945 -2.2121,0.7222 -1.9111,2.8596l-0.3787 0.0971 -0.6544 -2.6101 7.7734 -2.0831 0.7222 2.5981 -0.3758 0.1036c-0.816,-2.0049 -2.1663,-1.7141 -3.0736,-1.5259l1.8299 6.8275c0.2942,1.1039 0.6153,1.0428 1.587,0.852l0.0871 0.3236z"/>
   <path class="fil1" d="M139.0434 159.6262l7.3139 -2.5138 0.8804 2.552 -0.3141 0.1011c-0.9162,-1.6939 -1.9202,-1.7038 -3.634,-1.1176 -0.6991,0.2427 -0.9096,0.3725 -0.7255,0.9162l1.0173 2.9444c1.2213,-0.408 1.7553,-0.9587 1.4053,-2.5978l0.3309 -0.1127 1.4735 4.2877 -0.3299 0.1137c-0.6999,-1.5317 -1.4745,-1.6908 -2.7303,-1.2565l1.0554 3.0636c0.1917,0.5638 0.4826,0.632 1.3083,0.3464 1.2437,-0.4275 2.4296,-1.2042 2.5686,-3.3974l0.3501 -0.1163 0.4013 2.8143 -7.4234 2.5486 -0.1001 -0.3142c0.6897,-0.3233 1.0719,-0.4985 0.8032,-1.2884l-2.115 -6.1381c-0.2886,-0.8351 -0.8325,-0.6736 -1.4255,-0.515l-0.1101 -0.3201z"/>
   <path class="fil1" d="M150.5644 164.7918c0.7735,-0.3465 0.8547,-0.8099 0.654,-1.257l-2.6914 -6.0469c-0.3309,-0.7479 -0.8813,-0.5304 -1.3796,-0.3657l-0.1393 -0.3077 3.7403 -1.6615c3.4333,-1.5324 5.4938,0.1036 6.3355,1.9881 1.0006,2.258 0.5314,4.7587 -2.5098,6.2321l-3.8773 1.7261 -0.1324 -0.3077zm2.6267 -2.17l0 0c0.2231,0.4893 0.4268,0.6611 1.0165,0.4016 1.3704,-0.612 2.1026,-1.8756 0.8,-4.8035 -0.5017,-1.1167 -1.9402,-3.6015 -4.0487,-2.6655 -0.7869,0.35 -0.6377,0.6518 -0.505,0.9169l2.7371 6.1506z"/>
   <path class="fil1" d="M46.0282 48.6086c0.4891,-0.4924 1.2046,-0.4924 1.7812,-0.1781 0.6705,0.538 1.1655,1.4768 1.5678,2.2322 -0.9854,-0.039 -2.3715,0.5829 -3.2618,-0.1751 -0.8035,-0.8066 -1.7879,-1.0752 -2.7729,-1.4775 -0.0414,-0.136 -0.1807,-0.3558 0,-0.4917 0.2695,-0.3532 0.7163,-0.3532 1.2053,-0.3532 0.4951,0.1748 0.8972,0.8449 1.4802,0.4435z"/>
   <path class="fil1" d="M54.3876 55.4069c-0.0456,0.1326 -0.2273,0.1781 -0.1817,0.3142 0.4012,-0.0481 0.9391,0.0387 1.2983,0.2653 0.4929,0.4925 0.1361,1.072 0.1361,1.6556 -0.2687,0.3109 -0.7636,0.2231 -1.0332,0.0872 -0.4468,-0.2204 -0.4012,-0.7157 -0.7546,-0.9843 -0.1812,0.1807 -0.0477,0.7157 -0.4502,0.6245 -0.4011,-0.6245 -0.8026,-1.2462 -1.0296,-1.9625 0.227,0.0456 0.674,0.353 1.0296,0.0879 0.2244,-0.2695 0.5383,-0.4926 0.8908,-0.5382 0.1813,0.0946 0.0946,0.3142 0.0946,0.4503z"/>
   <path class="fil6" d="M48.1978 50.2604l-0.9227 0.1135c-0.253,0.0325 -0.5506,-0.0455 -0.8034,-0.3077 -0.0778,-0.0679 -0.1393,-0.1849 -0.243,-0.2495 0.1194,-0.0132 0.1939,-0.0355 0.2886,-0.1425 0,0 0.0972,0.5082 0.6541,0.5082 0.3913,0 0.5764,-0.4113 0.5764,-0.4113l0.45 0.4893z"/>
   <path class="fil1" d="M130.8912 55.3164l0.2627 0c-0.1747,0.5796 -0.7576,1.208 -0.9393,1.8779 -0.4468,0.1335 -0.4468,-0.4012 -0.5347,-0.6698 -0.3109,0.4012 -0.4011,0.9844 -0.9385,1.2047 -0.3564,0.087 -0.6707,0 -0.9393,-0.2686 0.1748,-0.5796 -0.4021,-1.5646 0.4917,-1.7395 0.2205,-0.0481 0.4476,-0.1361 0.7164,-0.0938l0.2196 0.1816c0.1393,-0.224 -0.1749,-0.5382 -0.1326,-0.8525 0.8032,-0.3556 1.0754,1.1176 1.7942,0.3599z"/>
   <path class="fil6" d="M135.0246 50.209c0,0 0.3945,0.2132 0.6964,0.2007 0.2879,-0.0101 0.7704,-0.0813 1.0364,-0.3333 0.0804,-0.0622 0.1485,-0.175 0.2522,-0.2429 -0.1194,-0.02 -0.1974,-0.039 -0.2854,-0.1493 0,0 -0.1127,0.5049 -0.6734,0.4891 -0.3886,-0.0132 -0.5636,-0.4377 -0.5636,-0.4377l-0.4626 0.4734z"/>
   <path class="fil4" d="M47.5016 72.5278c-0.4015,-0.4021 -0.9844,-0.6252 -1.3862,-0.9394 0.5346,0.2264 1.072,0.5373 1.3862,0.9394z"/>
   <path class="fil5" d="M42.8541 42.973l0 0.4503c-3.3979,0.9359 -7.1615,3.6206 -8.1851,7.2393 -1.5218,4.294 -1.341,10.0624 1.2991,13.8614 0.1328,0.849 -0.136,1.3898 -0.7188,1.7909 -0.8491,0.3109 -2.0148,0.224 -2.7236,-0.2653 -0.224,-0.0479 -0.5449,0 -0.5449,0.2653 0.1392,1.0274 1.3471,0.9818 2.1508,1.209 1.4318,0 2.7271,-0.8525 3.4426,-2.0638 0.3141,0.4536 0.0424,0.8548 0,1.2992 -0.7611,1.6126 -2.8593,0.8059 -4.0253,1.3863 0.5371,1.1657 1.9234,0.6245 2.8206,0.67 1.9627,-0.4893 2.5908,-3.4427 4.9168,-2.8596 -1.9236,0.8516 -0.9852,3.8447 -3.5302,3.7991 -0.6287,0 -1.2987,-0.4438 -1.788,0.0936 0.6676,0.6674 1.7396,1.024 2.8115,0.7547 1.9303,-0.6219 2.5067,-3.844 5.0976,-2.9055 0.224,0.0947 0.4014,0.2728 0.6707,0.2728 -1.0272,0 -2.1439,0 -3.0801,0.6699 -0.8524,0.7579 -1.0331,2.4584 -2.5076,2.3258 -0.4891,0.2198 -1.2526,-0.4959 -1.3861,0.2686 0.3567,0.6675 1.7885,0.3533 1.2992,1.3863 1.0722,0.8905 2.727,0.3532 3.8863,0.0872l0.0944 0.1335c0.622,-0.1816 1.2047,-0.4477 1.8746,-0.4959 1.0273,0.2263 2.2771,0.408 2.773,1.5678l0.1323 0.495c-1.3862,-0.8971 -3.4879,-1.4344 -4.9616,-0.6698 -1.2045,0.0413 -1.9624,-0.2273 -3.0412,-0.5415 -0.2685,0.0945 -0.2685,0.408 -0.0877,0.5415 2.0992,2.678 7.9123,0.845 7.0673,5.7684 -0.3206,0.6217 -0.7643,1.3374 -1.435,1.606 0.402,-0.7157 0.489,-1.606 0.3142,-2.4128 -0.806,-2.3292 -3.3556,-2.2836 -4.9682,-3.6699 -0.1749,0 -0.3076,0.0489 -0.4438,0.224 -0.1781,0.7155 0.7123,0.9842 1.1209,1.2983 1.1171,0.583 2.7273,0.583 3.2614,2.1476 0.0455,0.4924 0.2683,1.2503 -0.1817,1.6548 -0.039,-1.1176 -1.023,-2.4161 -2.2344,-3.0866 -1.6973,-0.4953 -2.9958,-1.9238 -3.3523,-3.7114 -1.3374,-2.9931 -4.9168,-3.3067 -6.7111,-5.9466 -1.1169,-2.5067 0.2752,-4.829 1.7943,-6.7078 0,-0.2263 -0.0446,-0.5339 -0.3143,-0.5339 -1.6996,0.7157 -1.6547,3.1284 -3.5297,3.6175 0.8906,-1.9178 0.6253,-4.9592 3.1707,-5.5867 0.0904,-0.1816 0.2262,-0.3142 0.1783,-0.5839 -0.7544,-0.5761 -1.6072,0.3142 -2.3225,0.6776 -0.3632,0.2651 -0.625,0.7578 -1.0265,0.8447 0.4436,-1.0263 1.3863,-2.28 2.5035,-2.5935 0.2236,-0.1335 0.3109,-0.4021 0.3986,-0.5836 -0.4444,-0.4015 -0.9395,0 -1.4287,0l-2.102 1.2992c-0.1323,-1.7876 2.151,-2.3715 3.0413,-3.7958 -0.7154,-0.3142 -1.4797,0.4884 -2.2375,0.7578l-1.0274 0.2653c0.0424,-0.4468 0.6252,-0.9361 0.9396,-1.3862 0.7154,-0.4438 1.5678,-0.6219 2.3253,-0.9361 0.0909,-0.2687 -0.1355,-0.4047 -0.2683,-0.5829l-0.447 0c0.4013,-0.3142 1.2496,-0.0873 1.4735,-0.5373 -0.5761,-0.447 -1.2957,-0.7164 -2.0537,-0.4894 0,-0.0455 1.0273,-0.1325 0.8456,-0.8099 -0.2207,-0.175 -0.4018,-0.4893 -0.6708,-0.5763l0 -0.1816c1.1209,-0.2654 2.0118,0.719 2.9088,1.1211 0.1325,-0.0879 0.1815,-0.2686 0.1815,-0.4503 -0.3633,-0.849 -1.2534,-1.2047 -1.9694,-1.6938 0.6703,-0.2752 1.2986,0.4891 1.9694,0.7577 0.5829,-1.2537 -1.1659,-1.4767 -1.5676,-2.5073 1.0296,-0.583 1.7003,0.9393 2.5912,1.2089 0.3559,-0.1368 0.1355,-0.5382 0.0934,-0.7587 -0.4082,-0.7577 -1.117,-1.1202 -1.5673,-1.8779 0.9396,-0.2273 1.3866,1.0719 2.3258,1.4276 0.1808,-0.2687 0,-0.8026 -0.2205,-1.1169 -0.538,-0.4022 -0.81,-1.072 -1.2079,-1.61 1.1589,-0.0873 1.784,1.1209 2.727,1.4741 0.0455,-1.1178 -1.254,-1.9625 -1.0298,-3.3074 1.4309,0.0456 1.5191,1.7884 2.591,2.329 0.1807,-1.1176 -0.6219,-2.0596 -0.7577,-3.1805 0.4433,-0.2654 0.9384,0.3631 1.4344,0.5405 0.5314,0.6252 0.3075,2.2801 1.4739,1.7917 -0.3629,-0.9851 -0.5836,-2.2834 0.1743,-3.1772 0.2271,0.9841 0.5838,2.1442 1.4807,2.814z"/>
   <path class="fil5" d="M46.2031 70.6034c0.0446,0.0945 -0.2208,-0.039 -0.5383,0 -0.848,-0.2198 -1.8331,0.1358 -2.6779,0.5445 -0.7164,0.3526 -1.3865,0.9778 -2.1508,0.7547 1.3471,-0.7547 2.3257,-2.8117 4.5634,-1.8756l0.8036 0.5764z"/>
   <path class="fil5" d="M43.0736 79.5945c0.1327,0.6285 0.1327,1.4285 -0.4889,1.7004 -0.2687,0.2198 -0.5405,0.3077 -0.942,0.2686 -0.1749,-0.9841 -0.0877,-2.1508 0.6733,-2.7724 0.402,0.0387 0.5763,0.4891 0.7576,0.8033z"/>
   <path class="fil4" d="M42.404 93.9427c2.28,1.4799 4.8288,2.6847 7.6429,2.6847 2.0148,0.6252 4.3828,0.0489 6.3098,-0.1781 -0.5862,1.8332 -2.1964,3.1739 -3.9841,3.6207 -3.7991,0.5838 -7.6886,0.0491 -10.8176,-2.0561 -1.2985,-1.1601 -3.2229,-2.277 -2.5948,-4.3399 0.4024,-0.4891 0.3569,-1.7817 1.2082,-1.5164 0.6676,0.7578 1.3866,1.4285 2.2355,1.7851z"/>
   <path class="fil4" d="M52.3726 101.0975l1.205 -0.4438c0,0.8026 -1.0235,1.3856 -1.3868,2.1499 -2.2769,1.4254 -5.2236,1.6492 -7.9994,1.1112 -2.6847,-0.5798 -5.6323,-1.5645 -6.8859,-4.204 -0.4469,-1.2468 0.2685,-2.4582 0.9851,-3.4432 3.6664,4.1592 8.8968,5.591 14.0819,4.8299z"/>
   <path class="fil4" d="M48.353 105.0359c0.4891,-0.1819 1.1597,-0.0882 1.6069,-0.1361 0.1328,-0.0458 0.0423,-0.2276 0.2688,-0.1781l0.2684 0c-0.8057,1.9202 -2.5943,3.1736 -4.6505,3.2676 -3.3978,0.1325 -6.5753,-0.8521 -9.1237,-3.0895 -0.4469,-0.8492 -1.5193,-1.6138 -1.1178,-2.7729 0.4022,-0.4892 0.2726,-1.2045 0.8524,-1.6547 2.9988,3.4425 7.287,5.454 11.8956,4.5637z"/>
   <path class="fil4" d="M35.0711 104.0962c2.9501,3.8449 7.4688,5.2305 12.1617,4.6473 -0.9851,1.8789 -2.8597,2.727 -4.9167,2.5945 -2.9534,-0.0423 -6.3088,-1.3832 -7.8278,-4.2008 -0.8906,-1.0719 0.1807,-1.9235 0.3589,-3.0411l0.224 0z"/>
   <path class="fil4" d="M44.2786 112.2775c-0.8906,1.519 -2.277,2.057 -3.8439,2.3221 -2.9933,0.1393 -5.9465,-1.1108 -7.3329,-3.7991 -0.3563,-1.1174 0.2262,-2.2834 0.5405,-3.3553 2.0987,3.9384 6.3482,5.2792 10.6363,4.8323z"/>
   <path class="fil4" d="M41.3733 115.4516c-0.9386,2.1016 -3.3521,1.6546 -5.4052,1.5676 -1.704,-0.3631 -3.4913,-1.6102 -3.8927,-3.3555 0.1806,-0.6252 0,-1.4351 0.4503,-1.9691 1.9625,3.0869 5.5865,4.159 8.8476,3.757z"/>
   <path class="fil4" d="M39.3171 118.1364c-0.1751,0.5346 -0.5832,1.1596 -1.2049,1.2924 -1.5223,0.5831 -3.4914,0.4047 -5.0104,-0.087 -0.5314,-0.3601 -1.2535,-0.7613 -1.4735,-1.3865 -0.2239,-0.8492 -0.0421,-1.7428 0.1777,-2.5038 1.7428,2.4582 4.6962,2.818 7.5111,2.6848z"/>
   <path class="fil4" d="M38.0212 120.6401c0,0.5794 -0.2651,1.0264 -0.7156,1.3829 -1.2047,0.4015 -2.9534,0.8972 -4.2917,0.3142 -0.6252,-0.1325 -0.9386,-0.6707 -1.2985,-1.1178l0 -1.7907c1.7453,1.2539 4.1621,1.5223 6.3057,1.2113z"/>
   <path class="fil4" d="M37.4872 123.0532c0.0455,0.6249 -0.0458,1.2534 -0.6741,1.5221 -1.383,0.6219 -3.038,0.8489 -4.2874,-0.2231 -0.4503,-0.3599 -0.2697,-0.9851 -0.4503,-1.4809 1.6093,0.758 3.7114,0.985 5.4118,0.1819z"/>
   <path class="fil4" d="M37.5741 125.8679c0.2206,0.6278 -0.4468,0.8971 -0.4013,1.4735 -0.583,0.4077 -1.1656,0.9427 -1.9235,0.8546 -0.3144,-0.0903 -0.8035,-0.1323 -1.2047,-0.1781 -0.36,-0.8057 -0.8974,-1.48 -1.0306,-2.3704 1.3863,0.7155 2.9541,0.3528 4.3852,-0.0872l0.1749 0.3077z"/>
   <path class="fil4" d="M38.7796 129.5791c0.2688,1.2115 -1.6068,0.761 -1.0235,1.7463 0.7151,0.2264 1.1173,-0.2696 1.561,-0.6287l0 -0.1749c1.1176,0.2205 1.9234,1.4285 3.0869,1.2927 0.1807,-0.0879 0.087,-0.3084 0.087,-0.4891 -0.8906,-0.496 -1.8756,-1.0722 -2.5006,-2.015 -0.1845,-0.3565 -0.5863,-0.6252 -0.5863,-1.0263 2.6856,1.3862 6.2159,0.8935 8.4053,3.2676 0.1391,0.4435 0.4954,1.1143 0.0934,1.561 -2.0562,1.8299 -4.7833,0.8452 -7.1538,0.4503 -2.3714,-0.9394 -4.6059,-2.5976 -6.08,-4.7418 1.0236,0.3142 2.3711,0 3.0871,-0.8035 0.6215,0.2207 0.6704,1.0306 1.0235,1.5613z"/>
   <path class="fil4" d="M28.0981 103.2473l0.087 -0.0936c-0.4927,-1.1592 -2.4584,-1.6095 -1.6975,-3.1708 0.9329,-1.072 2.0996,-0.2271 3.3491,-0.3599 1.0272,0.3142 2.2386,0.1781 3.2651,0.4469 -0.4437,1.208 -1.9177,1.3415 -2.6816,2.1442 0.0873,0.985 1.5606,1.3474 1.2081,2.5076 -0.6675,-0.2887 -2.7957,-1.2372 -3.5302,-1.4744z"/>
   <path class="fil4" d="M46.4226 40.159c-0.0388,0.8938 -0.2195,1.5604 -0.4892,2.2377 -0.0869,0.1751 0.182,-0.45 -0.1774,-0.3599 -0.2659,-0.1358 -0.4925,0.1784 -0.5802,0.3599 -0.2264,-0.7643 0.713,-1.4799 1.0273,-2.2377l0.2195 0z"/>
   <path class="fil4" d="M48.4407 42.3032c0.2205,0.6276 -0.136,1.208 -0.538,1.6549l0 -0.6219 -0.6699 0c0.3109,-0.3632 0.6699,-0.9851 1.2079,-1.033z"/>
   <path class="fil5" d="M24.4314 83.2577c-0.2271,4.4757 0.3565,8.7224 3.4429,12.077 1.1141,1.1601 2.2319,2.2321 3.5302,3.1682 -1.7453,0.1359 -3.8448,-0.7098 -5.5444,0.3625 -0.5379,0.5829 -0.5379,1.5188 -0.402,2.2321 0.6708,1.0778 1.561,1.7061 2.6402,2.1499 0.4916,0.0357 2.6714,0.9169 3.5302,1.4744 -2.9964,-0.8525 -7.1098,-1.2537 -9.8814,0.4045 -2.4585,1.4734 -2.9967,4.2881 -2.7729,6.7947 0.4016,2.3226 1.7453,4.2917 1.7453,6.7501 -1.3895,-2.0595 -4.5604,-2.8175 -5.101,-5.5446 0.0459,-1.5197 -0.3564,-2.8605 -1.114,-4.0262 0.2685,-1.2048 0.5379,-2.4582 0.803,-3.7055 0.0491,-0.314 -0.0454,-0.5827 -0.2651,-0.7611l-0.0944 0 0 -0.2684c0.7164,-2.0149 2.1507,-4.246 4.5603,-4.3821 0.8066,-0.9851 -0.9778,-1.0299 -1.2917,-1.7464 -0.5384,-0.5793 -0.6707,-1.295 -1.0298,-1.969 0.8055,-0.6632 1.969,-1.0687 2.9921,-0.6632 0.1816,0.087 0.3624,0.2653 0.6287,0.2197 0.45,-0.2197 0.1806,-0.5829 0.0868,-0.8515 -2.1887,-1.3865 -2.8106,-4.2004 -2.591,-6.6175 0.9396,-1.1589 0,-2.9954 0.5832,-4.4689 0.0877,-0.1783 0.3074,0.2686 0.6218,0.087 0.6285,-1.6997 1.3414,-3.3937 2.2387,-5.0071l0.2685 -0.0872c0,0.2266 0.087,0.4014 0.3143,0.5339l0.3557 0 2.4161 -2.5031c0.4018,2.0563 -0.7155,4.1133 -0.6701,6.348z"/>
   <path class="fil5" d="M35.5178 97.8355l-0.4468 1.1176c0.4468,-1.5679 -2.1932,-3.5305 0.359,-4.2459 0.625,-0.4021 0.9393,-1.0721 1.2056,-1.7039 0.5793,-1.4735 -2.1899,-2.8595 0,-3.7087 1.3407,-1.2528 1.7419,-3.352 1.1204,-4.9159 -0.2689,-0.2238 -0.1819,-0.6318 -0.4504,-0.8457 0.8521,-0.5829 1.5223,-1.3474 2.2378,-2.1508 0.0877,6.0827 -1.6998,11.4006 -4.0256,16.4534z"/>
   <path class="fil1" d="M23.8029 79.5076c-0.1325,2.9921 -1.386,6.0335 -0.3565,9.2074 0.224,2.2346 1.1178,4.1557 2.0995,6.0792 0.0902,0.3142 -0.088,0.583 -0.3567,0.6285 -0.7156,0.0872 -0.8032,-0.7155 -1.1178,-1.1176 -2.0114,-4.5179 -2.1921,-10.0176 -0.5373,-14.7975l0.2687 0z"/>
   <path class="fil1" d="M20.5411 86.9698l0 0.2719c-0.1358,0 -0.3134,0.087 -0.3624,-0.0912 -0.0421,-0.1807 0,-0.3558 0.1816,-0.4503 0.0449,0.1361 0.2266,0.0489 0.1807,0.2696z"/>
   <path class="fil1" d="M20.6291 87.9995c0.4925,2.6815 1.2047,5.2789 3.2611,7.3352 0.0946,0.2696 -0.1742,0.4893 -0.356,0.5773 -0.8488,-0.088 -1.2533,-1.0266 -1.7003,-1.607 -1.1146,-1.8814 -1.4735,-4.1134 -1.6551,-6.3935 0.1816,-0.1781 0.2755,0 0.4503,0.088z"/>
   <path class="fil1" d="M20.3604 101.8585c0,0.7187 -0.7165,0.6308 -1.0306,1.208 -1.9657,1.6997 -2.5454,4.158 -2.9019,6.6166l-0.1808 0c-0.4893,-3.3972 0.8973,-6.3482 3.5304,-8.0909 0.269,-0.087 0.4013,0.1335 0.583,0.2663z"/>
   <path class="fil1" d="M19.6897 106.4221c-2.5911,3.4425 -0.3599,7.332 0.3141,10.8625 -0.4957,-0.087 -0.5829,-0.7157 -0.761,-1.1176 -1.2081,-3.1742 -2.7692,-7.7758 0,-10.7724 0.4469,-0.3587 0.761,-0.9418 1.2983,-1.1167 0.936,0.8903 -0.6701,1.3796 -0.8515,2.1442z"/>
   <path class="fil4" d="M77.189 76.3715c-0.1328,-0.1325 -0.447,-0.4435 -0.3567,-0.7577 0.1358,0.224 0.3109,0.4891 0.3567,0.7577z"/>
   <path class="fil4" d="M106.6099 76.3715c-0.2232,-0.1325 -0.048,-0.4882 0.1783,-0.6698 -0.0456,0.2264 -0.0906,0.4891 -0.1783,0.6698z"/>
   <path class="fil4" d="M50.1346 109.6832c0.3145,1.4351 0.8973,3.0413 0.5409,4.5604 0.1359,0.091 0.224,0.2237 0.3988,0.1811 0.9418,-1.211 0.4948,-2.9921 0.359,-4.2914 1.655,2.0081 1.8365,4.8289 1.9689,7.4199 0.0882,0.2238 0.269,0.2238 0.4502,0.1335 0.9327,-1.0752 0.0881,-2.5917 0.3534,-3.9326 1.3408,1.9658 1.2983,4.8264 1.1212,7.0608 0.1325,0.0936 0.2197,0.2689 0.4012,0.1817 0.314,-0.314 0.4958,-0.7165 0.5339,-1.2048 0.45,2.2768 0.0946,4.8713 -0.758,7.1058 0.3988,-6.2575 -3.8437,-11.5822 -8.8934,-14.9767 0.0872,-0.6252 0.709,-1.3862 1.3797,-1.6997 0.1361,0.7155 -0.3566,1.6997 0.2689,2.1466 1.0785,-1.0297 -0.3109,-3.3546 1.2045,-4.0254l0.6706 1.3408z"/>
   <path class="fil4" d="M135.6265 112.0991c0.4893,-0.6665 -0.1815,-1.4311 0.1815,-2.1442 0.5829,0.3991 1.1593,0.8941 1.3797,1.5646 -5.0495,3.5755 -9.2988,8.7608 -8.8941,15.1575 -0.8515,-1.9268 -1.2081,-4.696 -0.7579,-7.3351 0.0878,0.5373 0.175,1.1202 0.6706,1.3855 0.7546,-0.447 -0.3174,-1.5639 0.1785,-2.4161 0,-1.6997 0.1292,-3.5723 1.2949,-4.9159 0,1.4309 -0.4917,3.0413 0.3598,4.0708 0.2205,0.0872 0.4015,-0.0936 0.4891,-0.2684 -0.3141,-2.5041 0.2688,-5.1432 1.7422,-7.1513 0.0879,1.4242 -0.6698,3.1252 0.6708,4.0644l0.1815 -0.1817c-0.1361,-2.056 0,-4.2914 1.2983,-5.852 1.3865,0.9775 -0.0488,3.0796 1.2049,4.022z"/>
   <path class="fil6" d="M58.7694 114.5119l-0.5379 -0.0873c0.5379,-0.4468 1.4286,-0.2684 2.0567,-0.761 0.7646,-0.6708 1.0265,-1.5646 1.7423,-2.3256 -0.7604,1.2992 -1.5671,3.0411 -3.2611,3.1739z"/>
   <path class="fil6" d="M60.7321 115.4516c-0.534,-0.5766 0.538,-0.852 0.7645,-1.428 0.0455,0.6244 -0.6251,0.8907 -0.7645,1.428z"/>
   <path class="fil6" d="M60.6451 117.0192c0.897,-0.8522 1.6548,-2.057 2.1498,-3.2651 0.0391,1.2957 -1.1655,2.4584 -2.1498,3.2651z"/>
   <path class="fil6" d="M123.1537 115.4516c-0.359,-0.5766 -0.8034,-1.1171 -1.0298,-1.7879 0.2264,0.7155 1.607,0.8483 1.0298,1.7879z"/>
   <path class="fil6" d="M124.4465 115.6328l0 0.3535c-0.1329,0.0479 -0.1751,-0.0882 -0.2653,-0.1784l0 -0.3563c0.1324,-0.0425 0.1773,0.091 0.2653,0.1812z"/>
   <path class="fil6" d="M59.4401 116.2615c-0.2269,-0.0945 0,-0.3634 0.0872,-0.5415l0.1781 0 -0.2653 0.5415z"/>
   <path class="fil1" d="M64.3919 80.0638c0.2716,0.1267 -0.2427,-0.5051 -0.2263,-0.8416 0.0154,-0.331 -0.3375,0.6964 -0.3375,0.6964 0,0 0.2949,0.0091 0.5638,0.1452z"/>
   <path class="fil6" d="M79.6887 26.9698c0.0457,2.4584 -0.0416,5.2733 -0.0871,7.5982 -0.0881,0.1782 -0.2684,0.0913 -0.4437,0.0913 -0.1327,-2.8183 -0.1327,-5.3637 0,-8.0038 0.2232,0 0.5307,0.0455 0.5307,0.3142z"/>
   <path class="fil6" d="M51.7018 59.6951c0,0 1.1078,0.1137 1.4931,0.6285 0.3924,0.5182 1.4387,2.1209 2.8021,1.4254 0,0 0.4045,0.6955 -0.8521,0.6955 -1.2109,0 -1.9011,-0.9096 -2.2475,-1.5155 -0.3433,-0.6054 -0.7778,-0.7969 -1.1009,-0.874l-0.0948 -0.3599z"/>
   <path class="fil6" d="M131.8242 59.6048c0,0 -0.3881,0.7702 -1.0073,1.0264 -0.6186,0.2595 -0.5409,0.6642 -0.6022,0.7646 0,0 -1.0107,1.004 -1.8754,1.004 -0.8715,0 -0.7513,-0.1236 -0.8258,-0.4278 -0.0712,-0.3109 0.3044,-0.3915 0.5214,-0.262 0.2173,0.1292 0.7388,0.4303 1.4734,-0.5639 0.7321,-0.9942 1.9078,-1.6483 2.3159,-1.5414z"/>
   <path class="fil5" d="M68.8295 86.5677c2.189,8.1842 -0.9853,15.8739 -2.9057,23.3872 0.3079,-1.6582 0.58,-3.6206 0.4895,-5.4085 -0.9849,-2.8662 1.0754,-5.5484 -0.1816,-8.1876 0.094,-1.1599 -0.5315,-2.2833 -1.3798,-3.1739 -0.0936,-2.0083 0.262,-4.2459 -1.0329,-5.7682 -0.7165,0.0905 -1.655,0.3167 -2.2354,-0.1749 0.4927,-2.0605 1.2113,-3.984 1.8333,-5.9468 2.727,0.3077 4.6961,2.8598 5.4126,5.2727z"/>
   <path class="fil6" d="M81.5707 2.4688c0.3142,0.4012 0.2207,1.072 0.094,1.5188 -0.2263,0.2686 -0.4505,0.4014 -0.7222,0.4503 0.1326,-0.5839 0.5405,-1.1211 0.2717,-1.7496 -0.4947,-0.5761 -1.072,-1.3407 -1.8809,-1.3407 -0.7581,0.087 -1.4289,0.5829 -1.8302,1.208 -0.7165,1.1176 0.4435,2.0147 0.5375,2.9053 -0.5375,-0.2654 -0.9396,-0.6708 -1.2081,-1.2048 -0.2266,-0.8033 -0.0904,-1.6548 0.3567,-2.3256 0.984,-0.5339 2.1921,-1.3862 3.3552,-0.6698 0.4438,0.4012 0.7579,0.7578 1.0264,1.208z"/>
   <path class="fil6" d="M79.8279 3.4919l-0.2263 1.2113c0.0871,5.0071 0.2687,9.8361 0.2263,14.9727 -0.2263,0.2271 -0.2685,0.7164 -0.6699,0.6774 -0.0455,-6.2153 -0.3596,-11.5825 -0.0945,-17.2148 0.3176,0 0.7644,-0.0481 0.7644,0.3533z"/>
   <path class="fil5" d="M31.5405 110.2212c-0.3565,-0.8069 -0.4501,-1.6551 -1.0331,-2.3259 1.1209,-0.5379 2.3257,-1.7004 2.3257,-3.0833 0.0937,-0.8483 -0.4895,-1.477 -0.7578,-2.2347 0.7155,-0.7643 1.7874,-1.2534 2.4129,-2.2377 -1.2961,3.1742 -1.9625,6.7045 -2.9477,9.8817z"/>
   <path class="fil5" d="M30.7763 114.875c-0.2689,0 -0.6702,-0.7643 -1.027,-1.0327 0.4503,-0.4024 1.027,-1.0724 1.3869,-1.6521 -0.0882,0.8906 -0.0882,1.8747 -0.3599,2.6848z"/>
   <path class="fil5" d="M124.5401 117.777c0.4021,0.5798 0.4021,1.6518 0.4021,2.4161 0.5829,7.5112 -2.5919,14.1278 -8.943,17.8399 -7.9608,5.813 -17.2595,9.3437 -23.9183,17.3018l-0.2695 0.0868c-3.7566,-4.8255 -9.2563,-7.9124 -14.1274,-11.1285 -1.7945,-0.7613 -3.3135,-1.9693 -5.0554,-2.8176 -1.0719,-0.8066 -2.3256,-1.299 -3.352,-2.2377 -6.394,-3.6182 -10.5561,-9.3441 -10.4201,-16.7187 0.3569,-1.2995 -0.3109,-3.129 0.2271,-4.295 0.5343,-0.3142 1.3409,0.2263 2.0086,-0.0877l0.4045 -0.181c0.087,0.3142 -0.3175,0.8936 0.2651,1.208 0.7167,0.0449 1.2995,-0.1816 1.9693,-0.4021 -0.8026,7.6016 2.9475,14.131 9.4803,17.6161 6.4357,3.5761 13.2341,6.7043 18.688,12.3855 0.8449,0.0456 0.8449,-0.9391 1.3863,-1.3404 6.2153,-6.0347 14.2605,-8.5413 20.9259,-13.6389 4.4698,-3.89 6.5261,-9.3444 5.8073,-15.2031 0.81,0 1.7908,0.8483 2.4193,0l-0.3141 -1.0273c0.6708,0.5832 1.7006,0.6252 2.4162,0.2238z"/>
   <path class="fil6" d="M77.684 86.0304c0,0 6.2217,-1.0466 8.2688,-2.1442l0 57.7677c0,0 -0.1193,0.3467 -0.984,-0.3432 -0.8616,-0.6966 -7.3788,-4.2169 -7.3788,-4.2169l0.094 -51.0634z"/>
   <path class="fil6" d="M97.6932 83.8862c0,0 3.2006,1.237 4.936,1.499 1.7262,0.2595 3.1548,0.4445 3.3108,0.9139l0 50.927c0,0 -7.3462,4.0968 -8.1854,4.7387l-0.0614 -58.0786z"/>
   <path class="fil6" d="M79.508 39.2261l0.0679 24.6438 -0.2785 2.1931c0,0 -0.2721,-3.6989 -0.2721,-5.6938 0,-1.9891 0,-20.5244 0,-20.5244 0,0 0,-0.6186 0.4827,-0.6186z"/>
  </g>
 </g>
</svg>
